<?xml version="1.0" encoding="UTF-8"?>
<svg id="Layer_1" xmlns="http://www.w3.org/2000/svg" version="1.1" viewBox="0 0 554.31 143.97">
  <!-- Generator: Adobe Illustrator 30.3.0, SVG Export Plug-In . SVG Version: 2.1.3 Build 182)  -->
  <defs>
    <style>
      .st0 {
        fill: #f68e1e;
      }

      .st1 {
        fill: #b0004a;
      }

      .st2 {
        fill: none;
        stroke: #231f20;
        stroke-miterlimit: 10;
        stroke-width: 1.6px;
      }

      .st3 {
        fill: #da2031;
      }

      .st4 {
        fill: #404041;
      }
    </style>
  </defs>
  <path class="st3" d="M104.3,75.28"/>
  <g>
    <path class="st2" d="M105.6,124.28"/>
    <path class="st1" d="M105.6,135.99c-47.99,0-87.67-35.97-92.31-83.67l23.32-2.27c3.47,35.64,33.13,62.51,68.99,62.51,15.32,0,29.83-4.89,41.97-14.14l14.2,18.63c-16.26,12.39-35.68,18.94-56.17,18.94Z"/>
    <path class="st0" d="M147.21,115.37l-11.72-20.28c16.45-9.5,27.5-26.39,29.58-45.18l23.28,2.57c-2.89,26.17-18.27,49.68-41.14,62.9Z"/>
  </g>
  <path class="st1" d="M97.38,35.74h0c-.26-2.72-2.68-4.72-5.4-4.46h-.07c-5.4.53-6.89-1.07-5.7-6.44l.02-.07c.59-2.67-1.09-5.32-3.76-5.91h0c-2.67-.59-5.32,1.09-5.91,3.76l-.02.07c-1.18,5.31-3.05,6.28-7.89,3.43l-.06-.04c-2.36-1.39-5.39-.6-6.78,1.75h0c-1.39,2.36-.6,5.39,1.75,6.78l.06.04c4.8,2.83,5.02,4.85.82,8.57l-.06.05c-2.05,1.81-2.24,4.94-.43,6.99h0c1.81,2.05,4.94,2.24,6.99.43l.06-.05c2.71-2.39,6.96-1.45,8.4,1.86l.03.07c1.09,2.51,4.01,3.66,6.52,2.57h0c2.51-1.09,3.66-4.01,2.57-6.52l-.03-.07c-2.21-5.09-1.02-6.9,4.37-7.42h.07c2.72-.27,4.72-2.69,4.46-5.41ZM78.3,37.58h0Z"/>
  <circle class="st0" cx="127.92" cy="16.21" r="8.54"/>
  <circle class="st0" cx="131.58" cy="56.05" r="11.32"/>
  <path class="st4" d="M243.04,66.28h-14.7v-16.44h-11.74v54.49h38.17v-54.49h-11.74v16.44ZM243.32,93.16h-14.7v-15.71h14.7v15.71Z"/>
  <polygon class="st4" points="428.43 49.85 415.89 49.85 415.89 104.18 450.73 104.18 450.73 92.45 428.43 92.45 428.43 49.85"/>
  <polygon class="st4" points="469.85 46.27 457.31 46.27 457.31 115.18 469.85 115.18 469.85 82.9 479.46 82.9 479.46 71.97 469.85 71.97 469.85 46.27"/>
  <path class="st4" d="M370.67,86.93c10.4,0,18.86-8.46,18.86-18.86s-8.46-18.86-18.86-18.86-18.86,8.46-18.86,18.86,8.46,18.86,18.86,18.86ZM370.67,60.73c4.05,0,7.34,3.29,7.34,7.34s-3.29,7.34-7.34,7.34-7.34-3.3-7.34-7.34,3.29-7.34,7.34-7.34Z"/>
  <path class="st4" d="M323.02,89.07h18.16v-42h-12.14v10.83h-24.68v-10.83h-12.14v42h18.25v11.15h-21.71v11.33h55.91v-11.33h-21.66v-11.15ZM304.37,78.14v-9.31h24.68v9.31h-24.68Z"/>
  <polygon class="st4" points="275.04 46.27 262.5 46.27 262.5 115.18 275.04 115.18 275.04 82.9 284.83 82.9 284.83 71.97 275.04 71.97 275.04 46.27"/>
  <path class="st4" d="M394.25,46.27v43.31s-4.12,4.02-11.77,4.02c-4.15,0-31.66-.06-31.66-.06v11.47s31.03-.02,32.72-.02c6.93,0,10.71-3.74,10.71-3.74v13.94h12.54V46.27h-12.54Z"/>
  <polygon class="st4" points="537.07 59.76 500.19 59.76 500.19 46.27 488.05 46.27 488.05 69.89 537.07 69.89 537.07 59.76"/>
  <path class="st4" d="M540.4,85.21v-10.69h-55.91v10.69h21.64v5.3h-19.14v24.68h50.95v-24.68h-19.11v-5.3h21.57ZM525.4,99.87v5.93h-25.87v-5.93h25.87Z"/>
</svg>