<?xml version="1.0" encoding="UTF-8"?>
<svg xmlns="http://www.w3.org/2000/svg" version="1.1" viewBox="0 0 507.3 437">
  <!-- Generator: Adobe Illustrator 30.3.0, SVG Export Plug-In . SVG Version: 2.1.3 Build 182)  -->
  <defs>
    <style>
      .st0 {
        mix-blend-mode: multiply;
        opacity: .3;
      }

      .st1 {
        fill: #261f35;
      }

      .st2 {
        fill: #cbcecc;
      }

      .st3 {
        fill: #48405b;
      }

      .st4 {
        isolation: isolate;
      }

      .st5 {
        fill: #fff;
      }

      .st6 {
        fill: #ff0358;
      }
    </style>
  </defs>
  <g class="st4">
    <g id="Layer_1">
      <g>
        <path class="st6" d="M361.2.3s73.2,43.9,75.1,137.6c1.3,57.7,0,299.1,0,299.1H72.5V137.9C72.5,43.5,144.1,0,144.1,0c0,186.8,64.4,186.5,64.4,186.5h94.7s58.4.3,58.4-186.5h0l-.3.3ZM208.2,377.7h94.7v-43.5h-94.7v43.5Z"/>
        <g>
          <g>
            <path class="st5" d="M273.2,252.8c6.6,36.9,32.8,66.9,67.8,76.7,52.1,14.8,91.8-23.4,96.2-27.5,42.6-42,28.1-101.9,27.5-104.8-63.7,18.3-127.5,36.9-191.2,55.2l-.3.3Z"/>
            <path class="st5" d="M70.3,302c4.1,4.1,44.2,42.6,96.2,27.5,34.7-10.1,60.9-39.8,67.8-76.7-63.7-18.3-127.5-36.9-191.2-55.2-.6,2.8-15.1,62.5,27.5,104.8l-.3-.3Z"/>
          </g>
          <path class="st2" d="M274.5,257.8c0,.6,0,.9.3,1.6,0,.6.3,1.6.6,2.2v.9c0,.9.6,1.6.6,2.5v.6c0,.9.6,1.9.9,2.8v.3c.3.9.6,1.9.9,2.8.3,1.3.9,2.2,1.3,3.2.3.9.9,1.9,1.3,2.8,11.7,24.9,33.1,43.9,59.6,51.7,52.1,14.8,91.8-23.4,96.2-27.5,28.4-28.1,31.2-63.7,30-85.5-.6-8.5-1.6-14.8-2.2-17.7v-1.6c-64.1,18.3-127.8,36.9-191.5,55.2,0,1.3.3,2.2.6,3.5,0,.6,0,.9.3,1.6h0l.9.3ZM373.2,236c42.9-13.3,73.2-15.5,82.4-15.8,0,12.6-1.9,70.4-49.2,93.4-65,31.6-106-23.7-114.9-40.4,6-4.7,36-23,81.7-37.2Z"/>
          <path class="st1" d="M365.3,336.7c-8.5,0-17-1.3-25.2-3.5-17.7-5-33.8-15.1-46.1-29.3-12.3-14.2-20.8-31.6-24.3-50.2l-.6-3.2,197.8-57.4.9,3.8c0,.6,4.4,17,2.5,38.8-2.2,27.5-12.9,51.4-30.9,69.4-3.2,2.8-14.2,13.6-31.2,21.8-14.5,6.9-28.7,10.4-43.2,10.4h0l.3-.6ZM277.6,255.6c7.3,33.8,32.2,61.5,64.4,70.7,20.8,6,42.3,3.8,63.4-6.3,15.8-7.6,26.5-17.4,29.3-20.2,17-17,26.8-38.8,28.7-64.7,1.3-14.8-.6-26.8-1.6-32.5l-184.3,53.3h0v-.3Z"/>
          <path class="st1" d="M396.6,280.8c2.2-.9,34.7-18,36.9-50.5.6-10.7-1.9-19.6-4.4-25.2-5,0-12.3.3-21.1,1.6-29.3,3.8-52.4,13.6-82.7,26.8-5.7,2.5-13.3,6-22.1,10.1.6,1.3,1.3,2.8,1.9,4.1,2.5,5.7,10.7,22.4,29.3,32.5,29.7,16.1,59.6,1.9,62.5.6h-.3Z"/>
          <path class="st5" d="M411.1,242.3c0,6.3-5,11.4-11.4,11.4s-11.4-5-11.4-11.4,5-11.4,11.4-11.4,11.4,5,11.4,11.4Z"/>
          <path class="st3" d="M347,278c6,1.3,12,1.6,18,1.9,4.1,0,8.2.3,12-1.6s6-6.9,4.7-10.1-2.5-2.2-3.8-2.5c-6.3-2.2-11.7-1.3-16.4-1.9-6.9-.6-3.5-.6-22.1-1.9-3.5,0-6.6-.6-7.9,1.3-1.6,2.5.6,6.6.9,6.9,2.5,4.7,7.9,6.3,15.1,7.9h-.6Z"/>
          <g class="st0">
            <path d="M304.8,247.7c1.3,2.5,3.5,7.6,7.6,13.3,14.2-7.6,35.3-16.7,61.2-24.9,24.6-7.6,45.1-11.7,60-13.6-.6-5.7-1.9-10.7-3.2-14.8-42.3,12.3-84.6,24.6-126.8,36.6.6,1.3.9,2.5,1.6,3.5h-.3Z"/>
          </g>
          <path class="st1" d="M497.2,169.4l3.5,20.2c.3,1.9-.9,4.1-2.8,4.4l-227.2,64.7-2.5-11c-.9-3.5.9-6.9,4.4-7.9l219.9-73.5c2.2-.6,4.7.6,5.4,3.2h-.6Z"/>
          <path class="st2" d="M233.4,256.2c0-.9.6-2.2.6-3.5-63.7-18.3-127.5-36.9-191.2-55.2v1.6c-.9,2.8-2.2,9.2-2.5,17.7-1.3,21.8,1.6,57.4,30,85.5,4.1,4.1,44.2,42.6,96.2,27.5,26.5-7.6,48-26.8,59.6-51.7.6-.9.9-1.9,1.3-2.8.3-.9.9-1.9,1.3-2.8.3-.9.6-2.2,1.3-3.2,0,0,.6-2.2.9-3.2,0,0,.6-2.2.9-3.2,0-.3.6-2.5.9-3.2,0-.6,0-.9.3-1.6,0-.6,0-.9.3-1.6h0v-.3ZM215.8,273.3c-8.8,16.7-49.9,71.9-114.9,40.4-47.3-23-49.5-80.8-49.2-93.4,9.2.3,39.4,2.5,82.4,15.8,45.4,14.2,75.7,32.5,81.7,37.2Z"/>
          <path class="st1" d="M141.9,336.7c-14.5,0-29-3.5-43.2-10.4-17-8.2-28.1-18.6-31.2-21.8-18-18-28.7-42-30.9-69.4-1.6-21.8,2.5-38.2,2.5-38.8l.9-3.8,197.8,57.4-.6,3.2c-3.5,18.6-11.7,36.3-24.3,50.2-12.6,14.2-28.4,24.3-46.1,29.3-8.5,2.5-16.7,3.5-25.2,3.5h0l.3.6ZM45.7,202.3c-.9,5.7-2.8,18-1.6,32.5,2.2,26.2,11.7,48,28.7,64.7,2.8,2.8,13.3,12.6,29.3,20.2,21.1,10.1,42.6,12.3,63.4,6.3,32.2-9.2,57.1-36.9,64.4-70.7l-184.3-53.3h0v.3Z"/>
          <path class="st1" d="M111,280.8c-2.2-.9-34.7-18-36.9-50.5-.6-10.7,1.9-19.6,4.4-25.2,5,0,12.3.3,21.1,1.6,29.3,3.8,52.4,13.6,82.7,26.8,5.7,2.5,13.3,6,22.1,10.1-.6,1.3-1.3,2.8-1.9,4.1-2.5,5.7-10.7,22.4-29.3,32.5-29.7,16.1-59.6,1.9-62.5.6h.3Z"/>
          <path class="st5" d="M96.2,242.3c0,6.3,5,11.4,11.4,11.4s11.4-5,11.4-11.4-5-11.4-11.4-11.4-11.4,5-11.4,11.4Z"/>
          <path class="st3" d="M160.2,278c-6,1.3-12,1.6-18,1.9-4.1,0-8.2.3-12-1.6s-6-6.9-4.7-10.1,2.5-2.2,3.8-2.5c6.3-2.2,11.7-1.3,16.4-1.9,6.9-.6,3.5-.6,22.1-1.9,3.5,0,6.6-.6,7.9,1.3,1.6,2.5-.6,6.6-.9,6.9-2.5,4.7-7.9,6.3-15.1,7.9h.6Z"/>
          <g class="st0">
            <path d="M202.5,247.7c-1.3,2.5-3.5,7.6-7.6,13.3-14.2-7.6-35.3-16.7-61.2-24.9-24.6-7.6-45.1-11.7-60-13.6.6-5.7,1.9-10.7,3.2-14.8,42.3,12.3,84.6,24.6,126.8,36.6-.6,1.3-.9,2.5-1.6,3.5h.3Z"/>
          </g>
          <path class="st1" d="M10,169.4l-3.5,20.2c-.3,1.9.9,4.1,2.8,4.4l227.2,64.7,2.5-11c.9-3.5-.9-6.9-4.4-7.9L14.8,166.3c-2.2-.6-4.7.6-5.4,3.2h.6Z"/>
        </g>
      </g>
    </g>
  </g>
</svg>