<?xml version="1.0" encoding="UTF-8"?>
<svg xmlns="http://www.w3.org/2000/svg" version="1.1" viewBox="0 0 382.4 500">
  <!-- Generator: Adobe Illustrator 30.3.0, SVG Export Plug-In . SVG Version: 2.1.3 Build 182)  -->
  <defs>
    <style>
      .st0 {
        fill: #e91e63;
      }

      .st1 {
        fill: #253f8a;
      }

      .st2 {
        fill: #3e6795;
      }

      .st3 {
        fill: #759ecd;
      }

      .st4 {
        fill: #030558;
      }
    </style>
  </defs>
  <g id="Design" shape-rendering="crispEdges">
    <g>
      <g>
        <polygon class="st3" points="205.9 14.7 191.2 14.7 176.5 14.7 161.8 14.7 161.8 29.4 176.5 29.4 191.2 29.4 205.9 29.4 220.6 29.4 220.6 14.7 205.9 14.7"/>
        <polygon class="st3" points="132.4 29.4 132.4 44.1 147.1 44.1 161.8 44.1 161.8 29.4 147.1 29.4 132.4 29.4"/>
        <polygon class="st3" points="235.3 29.4 220.6 29.4 220.6 44.1 235.3 44.1 250 44.1 250 29.4 235.3 29.4"/>
        <polygon class="st3" points="102.9 44.1 102.9 58.8 117.6 58.8 132.4 58.8 132.4 44.1 117.6 44.1 102.9 44.1"/>
        <polygon class="st3" points="264.7 44.1 250 44.1 250 58.8 264.7 58.8 279.4 58.8 279.4 44.1 264.7 44.1"/>
        <rect class="st3" x="88.2" y="58.8" width="14.7" height="14.7"/>
        <rect class="st3" x="279.4" y="58.8" width="14.7" height="14.7"/>
        <polygon class="st3" points="73.5 88.2 73.5 102.9 88.2 102.9 88.2 88.2 88.2 73.5 73.5 73.5 73.5 88.2"/>
        <polygon class="st3" points="294.1 73.5 294.1 88.2 294.1 102.9 308.8 102.9 308.8 88.2 308.8 73.5 294.1 73.5"/>
      </g>
      <g>
        <polygon class="st0" points="235.3 147.1 220.6 147.1 220.6 161.8 205.9 161.8 205.9 176.5 220.6 176.5 235.3 176.5 250 176.5 250 161.8 250 147.1 235.3 147.1"/>
        <polygon class="st0" points="161.8 176.5 176.5 176.5 176.5 161.8 161.8 161.8 161.8 147.1 147.1 147.1 132.4 147.1 132.4 161.8 132.4 176.5 147.1 176.5 161.8 176.5"/>
        <rect class="st0" x="147.1" y="205.9" width="14.7" height="14.7"/>
        <rect class="st0" x="220.6" y="205.9" width="14.7" height="14.7"/>
        <polygon class="st0" points="191.2 220.6 176.5 220.6 161.8 220.6 161.8 235.3 176.5 235.3 191.2 235.3 205.9 235.3 220.6 235.3 220.6 220.6 205.9 220.6 191.2 220.6"/>
      </g>
      <g>
        <polygon class="st2" points="58.8 205.9 73.5 205.9 73.5 220.6 88.2 220.6 88.2 205.9 88.2 191.2 88.2 176.5 88.2 161.8 88.2 147.1 88.2 132.4 102.9 132.4 102.9 117.6 102.9 102.9 117.6 102.9 117.6 88.2 132.4 88.2 132.4 73.5 147.1 73.5 147.1 58.8 161.8 58.8 176.5 58.8 191.2 58.8 205.9 58.8 220.6 58.8 235.3 58.8 235.3 73.5 250 73.5 250 88.2 264.7 88.2 264.7 102.9 279.4 102.9 279.4 117.6 279.4 132.4 294.1 132.4 294.1 147.1 294.1 161.8 294.1 176.5 294.1 191.2 294.1 205.9 294.1 220.6 308.8 220.6 308.8 205.9 323.5 205.9 323.5 191.2 338.2 191.2 338.2 176.5 338.2 161.8 338.2 147.1 338.2 132.4 323.5 132.4 323.5 117.6 323.5 102.9 308.8 102.9 294.1 102.9 294.1 88.2 294.1 73.5 279.4 73.5 279.4 58.8 264.7 58.8 250 58.8 250 44.1 235.3 44.1 220.6 44.1 220.6 29.4 205.9 29.4 191.2 29.4 176.5 29.4 161.8 29.4 161.8 44.1 147.1 44.1 132.4 44.1 132.4 58.8 117.6 58.8 102.9 58.8 102.9 73.5 88.2 73.5 88.2 88.2 88.2 102.9 73.5 102.9 58.8 102.9 58.8 117.6 58.8 132.4 44.1 132.4 44.1 147.1 44.1 161.8 44.1 176.5 44.1 191.2 58.8 191.2 58.8 205.9"/>
        <polygon class="st2" points="352.9 397.1 352.9 382.4 352.9 367.6 352.9 352.9 338.2 352.9 338.2 338.2 338.2 323.5 323.5 323.5 308.8 323.5 308.8 308.8 294.1 308.8 279.4 308.8 279.4 323.5 264.7 323.5 264.7 338.2 250 338.2 235.3 338.2 235.3 352.9 220.6 352.9 205.9 352.9 191.2 352.9 176.5 352.9 161.8 352.9 147.1 352.9 147.1 338.2 132.4 338.2 117.6 338.2 117.6 323.5 102.9 323.5 102.9 308.8 88.2 308.8 73.5 308.8 73.5 323.5 58.8 323.5 44.1 323.5 44.1 338.2 44.1 352.9 29.4 352.9 29.4 367.6 29.4 382.4 29.4 397.1 14.7 397.1 14.7 411.8 14.7 426.5 14.7 441.2 14.7 455.9 14.7 470.6 29.4 470.6 44.1 470.6 58.8 470.6 73.5 470.6 73.5 455.9 73.5 441.2 73.5 426.5 88.2 426.5 88.2 411.8 88.2 397.1 88.2 382.4 102.9 382.4 102.9 367.6 102.9 352.9 117.6 352.9 132.4 352.9 132.4 367.6 132.4 382.4 117.6 382.4 117.6 397.1 117.6 411.8 117.6 426.5 102.9 426.5 102.9 441.2 102.9 455.9 102.9 470.6 117.6 470.6 132.4 470.6 147.1 470.6 161.8 470.6 176.5 470.6 191.2 470.6 205.9 470.6 220.6 470.6 235.3 470.6 250 470.6 264.7 470.6 279.4 470.6 279.4 455.9 279.4 441.2 279.4 426.5 264.7 426.5 264.7 411.8 264.7 397.1 264.7 382.4 250 382.4 250 367.6 250 352.9 264.7 352.9 279.4 352.9 279.4 367.6 279.4 382.4 294.1 382.4 294.1 397.1 294.1 411.8 294.1 426.5 308.8 426.5 308.8 441.2 308.8 455.9 308.8 470.6 323.5 470.6 338.2 470.6 352.9 470.6 367.6 470.6 367.6 455.9 367.6 441.2 367.6 426.5 367.6 411.8 367.6 397.1 352.9 397.1"/>
      </g>
      <g>
        <polygon class="st1" points="102.9 294.1 117.6 294.1 117.6 308.8 132.4 308.8 147.1 308.8 147.1 323.5 161.8 323.5 176.5 323.5 191.2 323.5 205.9 323.5 220.6 323.5 235.3 323.5 235.3 308.8 250 308.8 264.7 308.8 264.7 294.1 279.4 294.1 279.4 279.4 294.1 279.4 294.1 264.7 308.8 264.7 308.8 250 323.5 250 323.5 235.3 323.5 220.6 338.2 220.6 338.2 205.9 338.2 191.2 323.5 191.2 323.5 205.9 308.8 205.9 308.8 220.6 294.1 220.6 279.4 220.6 279.4 235.3 279.4 250 264.7 250 264.7 264.7 250 264.7 250 279.4 235.3 279.4 235.3 294.1 220.6 294.1 205.9 294.1 191.2 294.1 176.5 294.1 161.8 294.1 147.1 294.1 147.1 279.4 132.4 279.4 132.4 264.7 117.6 264.7 117.6 250 102.9 250 102.9 235.3 102.9 220.6 88.2 220.6 73.5 220.6 73.5 205.9 58.8 205.9 58.8 191.2 44.1 191.2 44.1 205.9 44.1 220.6 58.8 220.6 58.8 235.3 58.8 250 73.5 250 73.5 264.7 88.2 264.7 88.2 279.4 102.9 279.4 102.9 294.1"/>
        <polygon class="st1" points="88.2 294.1 88.2 279.4 73.5 279.4 73.5 294.1 58.8 294.1 58.8 308.8 58.8 323.5 73.5 323.5 73.5 308.8 88.2 308.8 102.9 308.8 102.9 294.1 88.2 294.1"/>
        <rect class="st1" x="102.9" y="308.8" width="14.7" height="14.7"/>
        <rect class="st1" x="264.7" y="308.8" width="14.7" height="14.7"/>
        <polygon class="st1" points="308.8 323.5 323.5 323.5 323.5 308.8 323.5 294.1 308.8 294.1 308.8 279.4 294.1 279.4 294.1 294.1 279.4 294.1 279.4 308.8 294.1 308.8 308.8 308.8 308.8 323.5"/>
        <polygon class="st1" points="132.4 323.5 117.6 323.5 117.6 338.2 132.4 338.2 147.1 338.2 147.1 323.5 132.4 323.5"/>
        <polygon class="st1" points="235.3 323.5 235.3 338.2 250 338.2 264.7 338.2 264.7 323.5 250 323.5 235.3 323.5"/>
        <polygon class="st1" points="205.9 338.2 191.2 338.2 176.5 338.2 161.8 338.2 147.1 338.2 147.1 352.9 161.8 352.9 176.5 352.9 191.2 352.9 205.9 352.9 220.6 352.9 235.3 352.9 235.3 338.2 220.6 338.2 205.9 338.2"/>
        <polygon class="st1" points="264.7 352.9 250 352.9 250 367.6 250 382.4 264.7 382.4 264.7 367.6 264.7 352.9"/>
        <polygon class="st1" points="132.4 367.6 132.4 352.9 117.6 352.9 117.6 367.6 117.6 382.4 132.4 382.4 132.4 367.6"/>
        <polygon class="st1" points="279.4 397.1 279.4 382.4 264.7 382.4 264.7 397.1 264.7 411.8 264.7 426.5 279.4 426.5 279.4 411.8 279.4 397.1"/>
        <polygon class="st1" points="117.6 411.8 117.6 397.1 117.6 382.4 102.9 382.4 102.9 397.1 102.9 411.8 102.9 426.5 117.6 426.5 117.6 411.8"/>
        <polygon class="st1" points="279.4 441.2 279.4 455.9 279.4 470.6 264.7 470.6 250 470.6 235.3 470.6 220.6 470.6 205.9 470.6 191.2 470.6 176.5 470.6 161.8 470.6 147.1 470.6 132.4 470.6 117.6 470.6 102.9 470.6 102.9 455.9 102.9 441.2 102.9 426.5 88.2 426.5 88.2 441.2 88.2 455.9 88.2 470.6 88.2 485.3 102.9 485.3 117.6 485.3 132.4 485.3 147.1 485.3 161.8 485.3 176.5 485.3 191.2 485.3 205.9 485.3 220.6 485.3 235.3 485.3 250 485.3 264.7 485.3 279.4 485.3 294.1 485.3 294.1 470.6 294.1 455.9 294.1 441.2 294.1 426.5 279.4 426.5 279.4 441.2"/>
        <polygon class="st1" points="44.1 470.6 29.4 470.6 14.7 470.6 14.7 485.3 29.4 485.3 44.1 485.3 58.8 485.3 73.5 485.3 73.5 470.6 58.8 470.6 44.1 470.6"/>
        <polygon class="st1" points="352.9 470.6 338.2 470.6 323.5 470.6 308.8 470.6 308.8 485.3 323.5 485.3 338.2 485.3 352.9 485.3 367.6 485.3 367.6 470.6 352.9 470.6"/>
      </g>
      <g>
        <polygon class="st4" points="191.2 14.7 205.9 14.7 220.6 14.7 220.6 0 205.9 0 191.2 0 176.5 0 161.8 0 161.8 14.7 176.5 14.7 191.2 14.7"/>
        <polygon class="st4" points="161.8 29.4 161.8 14.7 147.1 14.7 132.4 14.7 132.4 29.4 147.1 29.4 161.8 29.4"/>
        <polygon class="st4" points="235.3 29.4 250 29.4 250 14.7 235.3 14.7 220.6 14.7 220.6 29.4 235.3 29.4"/>
        <polygon class="st4" points="132.4 44.1 132.4 29.4 117.6 29.4 102.9 29.4 102.9 44.1 117.6 44.1 132.4 44.1"/>
        <polygon class="st4" points="264.7 44.1 279.4 44.1 279.4 29.4 264.7 29.4 250 29.4 250 44.1 264.7 44.1"/>
        <rect class="st4" x="88.2" y="44.1" width="14.7" height="14.7"/>
        <rect class="st4" x="279.4" y="44.1" width="14.7" height="14.7"/>
        <rect class="st4" x="73.5" y="58.8" width="14.7" height="14.7"/>
        <rect class="st4" x="294.1" y="58.8" width="14.7" height="14.7"/>
        <polygon class="st4" points="73.5 88.2 73.5 73.5 58.8 73.5 58.8 88.2 58.8 102.9 73.5 102.9 73.5 88.2"/>
        <polygon class="st4" points="308.8 102.9 323.5 102.9 323.5 88.2 323.5 73.5 308.8 73.5 308.8 88.2 308.8 102.9"/>
        <polygon class="st4" points="58.8 117.6 58.8 102.9 44.1 102.9 44.1 117.6 44.1 132.4 58.8 132.4 58.8 117.6"/>
        <polygon class="st4" points="323.5 132.4 338.2 132.4 338.2 117.6 338.2 102.9 323.5 102.9 323.5 117.6 323.5 132.4"/>
        <polygon class="st4" points="338.2 161.8 338.2 176.5 338.2 191.2 338.2 205.9 338.2 220.6 352.9 220.6 352.9 205.9 352.9 191.2 352.9 176.5 352.9 161.8 352.9 147.1 352.9 132.4 338.2 132.4 338.2 147.1 338.2 161.8"/>
        <polygon class="st4" points="44.1 191.2 44.1 176.5 44.1 161.8 44.1 147.1 44.1 132.4 29.4 132.4 29.4 147.1 29.4 161.8 29.4 176.5 29.4 191.2 29.4 205.9 29.4 220.6 44.1 220.6 44.1 205.9 44.1 191.2"/>
        <polygon class="st4" points="58.8 220.6 44.1 220.6 44.1 235.3 44.1 250 58.8 250 58.8 235.3 58.8 220.6"/>
        <path class="st4" d="M102.9,235.3v14.7h14.7v14.7h14.7v14.7h14.7v14.7h88.2v-14.7h14.7v-14.7h14.7v-14.7h14.7v-29.4h14.7v-88.2h-14.7v-29.4h-14.7v-14.7h-14.7v-14.7h-14.7v-14.7h-88.2v14.7h-14.7v14.7h-14.7v14.7h-14.7v29.4h-14.7v88.2h14.7v14.7ZM250,161.8v14.7h-44.1v-14.7h14.7v-14.7h29.4v14.7ZM147.1,205.9h14.7v14.7h58.8v-14.7h14.7v14.7h-14.7v14.7h-58.8v-14.7h-14.7v-14.7ZM147.1,147.1h14.7v14.7h14.7v14.7h-44.1v-29.4h14.7Z"/>
        <polygon class="st4" points="323.5 235.3 323.5 250 338.2 250 338.2 235.3 338.2 220.6 323.5 220.6 323.5 235.3"/>
        <rect class="st4" x="58.8" y="250" width="14.7" height="14.7"/>
        <rect class="st4" x="308.8" y="250" width="14.7" height="14.7"/>
        <rect class="st4" x="73.5" y="264.7" width="14.7" height="14.7"/>
        <rect class="st4" x="294.1" y="264.7" width="14.7" height="14.7"/>
        <rect class="st4" x="58.8" y="279.4" width="14.7" height="14.7"/>
        <rect class="st4" x="88.2" y="279.4" width="14.7" height="14.7"/>
        <rect class="st4" x="279.4" y="279.4" width="14.7" height="14.7"/>
        <rect class="st4" x="308.8" y="279.4" width="14.7" height="14.7"/>
        <rect class="st4" x="102.9" y="294.1" width="14.7" height="14.7"/>
        <rect class="st4" x="264.7" y="294.1" width="14.7" height="14.7"/>
        <polygon class="st4" points="58.8 308.8 58.8 294.1 44.1 294.1 44.1 308.8 44.1 323.5 58.8 323.5 58.8 308.8"/>
        <polygon class="st4" points="132.4 308.8 117.6 308.8 117.6 323.5 132.4 323.5 147.1 323.5 147.1 308.8 132.4 308.8"/>
        <polygon class="st4" points="235.3 308.8 235.3 323.5 250 323.5 264.7 323.5 264.7 308.8 250 308.8 235.3 308.8"/>
        <polygon class="st4" points="323.5 323.5 338.2 323.5 338.2 308.8 338.2 294.1 323.5 294.1 323.5 308.8 323.5 323.5"/>
        <polygon class="st4" points="205.9 323.5 191.2 323.5 176.5 323.5 161.8 323.5 147.1 323.5 147.1 338.2 161.8 338.2 176.5 338.2 191.2 338.2 205.9 338.2 220.6 338.2 235.3 338.2 235.3 323.5 220.6 323.5 205.9 323.5"/>
        <polygon class="st4" points="44.1 338.2 44.1 323.5 29.4 323.5 29.4 338.2 29.4 352.9 44.1 352.9 44.1 338.2"/>
        <polygon class="st4" points="338.2 352.9 352.9 352.9 352.9 338.2 352.9 323.5 338.2 323.5 338.2 338.2 338.2 352.9"/>
        <polygon class="st4" points="279.4 352.9 264.7 352.9 264.7 367.6 264.7 382.4 279.4 382.4 279.4 367.6 279.4 352.9"/>
        <polygon class="st4" points="117.6 367.6 117.6 352.9 102.9 352.9 102.9 367.6 102.9 382.4 117.6 382.4 117.6 367.6"/>
        <polygon class="st4" points="352.9 382.4 352.9 397.1 367.6 397.1 367.6 382.4 367.6 367.6 367.6 352.9 352.9 352.9 352.9 367.6 352.9 382.4"/>
        <polygon class="st4" points="29.4 382.4 29.4 367.6 29.4 352.9 14.7 352.9 14.7 367.6 14.7 382.4 14.7 397.1 29.4 397.1 29.4 382.4"/>
        <polygon class="st4" points="294.1 397.1 294.1 382.4 279.4 382.4 279.4 397.1 279.4 411.8 279.4 426.5 294.1 426.5 294.1 411.8 294.1 397.1"/>
        <polygon class="st4" points="367.6 397.1 367.6 411.8 367.6 426.5 367.6 441.2 367.6 455.9 367.6 470.6 367.6 485.3 352.9 485.3 338.2 485.3 323.5 485.3 308.8 485.3 308.8 470.6 308.8 455.9 308.8 441.2 308.8 426.5 294.1 426.5 294.1 441.2 294.1 455.9 294.1 470.6 294.1 485.3 279.4 485.3 264.7 485.3 250 485.3 235.3 485.3 220.6 485.3 205.9 485.3 191.2 485.3 176.5 485.3 161.8 485.3 147.1 485.3 132.4 485.3 117.6 485.3 102.9 485.3 88.2 485.3 88.2 470.6 88.2 455.9 88.2 441.2 88.2 426.5 73.5 426.5 73.5 441.2 73.5 455.9 73.5 470.6 73.5 485.3 58.8 485.3 44.1 485.3 29.4 485.3 14.7 485.3 14.7 470.6 14.7 455.9 14.7 441.2 14.7 426.5 14.7 411.8 14.7 397.1 0 397.1 0 411.8 0 426.5 0 441.2 0 455.9 0 470.6 0 485.3 0 500 14.7 500 29.4 500 44.1 500 58.8 500 73.5 500 88.2 500 102.9 500 117.6 500 132.4 500 147.1 500 161.8 500 176.5 500 191.2 500 205.9 500 220.6 500 235.3 500 250 500 264.7 500 279.4 500 294.1 500 308.8 500 323.5 500 338.2 500 352.9 500 367.6 500 382.4 500 382.4 485.3 382.4 470.6 382.4 455.9 382.4 441.2 382.4 426.5 382.4 411.8 382.4 397.1 367.6 397.1"/>
        <polygon class="st4" points="102.9 411.8 102.9 397.1 102.9 382.4 88.2 382.4 88.2 397.1 88.2 411.8 88.2 426.5 102.9 426.5 102.9 411.8"/>
      </g>
    </g>
  </g>
</svg>