<?xml version="1.0" encoding="UTF-8"?>
<svg id="Layer_1" xmlns="http://www.w3.org/2000/svg" version="1.1" viewBox="0 0 1000 1000">
  <!-- Generator: Adobe Illustrator 30.3.0, SVG Export Plug-In . SVG Version: 2.1.3 Build 182)  -->
  <defs>
    <style>
      .st0 {
        fill: #231f20;
      }
    </style>
  </defs>
  <g>
    <path class="st0" d="M119.11,748.01v-70.4H36.94v-43.24h221.04v43.24h-84.57v70.4h-54.3ZM187.58,628.36l6.97-61.51H43.91v-40.84h206.86l-11.29,102.35h-51.9Z"/>
    <path class="st0" d="M272.39,613.95c27.87-1.92,47.81-17.54,47.81-49.73h-45.41v-38.2h138.39v38.2h-45.41c.24,32.19,20.18,47.81,47.81,49.73v39.16c-31.47-.72-55.98-10.33-71.6-31.95-16.1,21.62-40.6,31.23-71.6,31.95v-39.16ZM329.09,659.84h114.84c26.43,0,47.09,17.78,47.09,43.49s-20.66,43.49-47.09,43.49h-114.84c-25.95,0-46.61-18.5-46.61-43.49s20.66-43.49,46.61-43.49ZM428.08,711.01c6.73,0,10.09-3.12,10.09-7.69,0-5.28-3.36-7.93-10.09-7.93h-83.37c-5.77,0-9.13,2.64-9.13,7.93,0,4.57,3.36,7.69,9.13,7.69h83.37ZM400.93,606.5v-36.28h34.6v-47.81h53.1v132.62h-53.1v-48.53h-34.6Z"/>
    <path class="st0" d="M506.64,606.02c59.58,0,86.49-13.69,86.49-41.56h-85.29v-38.44h134.06v26.43c0,77.6-66.31,92.02-135.26,92.02v-38.44ZM517.93,745.61v-94.42h196.53v94.42h-53.1v-6.25l-143.43,6.25ZM571.27,707.41l90.1-3.36v-17.06h-90.1v20.42ZM661.61,645.18v-122.77h52.86v37.24h24.99v42.04h-24.99v43.49h-52.86Z"/>
    <path class="st0" d="M738.49,681.7c25.71-17.3,47.57-41.08,47.57-111.48v-43.01h53.1v43.01c0,70.4,21.86,94.18,47.57,111.48v56.7c-30.75-15.38-56.94-35.8-74.24-68.23-17.3,32.43-43.25,52.86-74,68.23v-56.7ZM900.42,745.61v-223.2h54.06v223.2h-54.06Z"/>
    <path class="st0" d="M34.95,875.08c13.17-8.86,23.01-21.04,23.38-57.1v-22.03h26.71v22.03c.37,36.06,10.21,48.24,23.38,57.1v29.04c-15.63-7.75-28.3-18.09-36.8-34.21-8.37,16.12-21.29,26.46-36.67,34.21v-29.04ZM95.99,853.05v-22.27h22.52v-37.29h27.07v114.33h-27.07v-54.77h-22.52Z"/>
    <path class="st0" d="M266.31,853.66h-43.69v6.4h39.38v29.29h-77.65v4.18h79.5v14.28h-106.45v-30.64h77.65v-4.18h-77.65v-12.92h39.26v-6.4h-43.57v-17.84h113.22v17.84ZM176.71,831.76c-11.32,0-20.55-8.61-20.55-19.32s9.23-19.57,20.55-19.57h65.84c11.32,0,20.68,8.74,20.68,19.57s-9.35,19.32-20.68,19.32h-65.84ZM184.96,809.48c-1.6,0-2.83,1.48-2.83,3.08s1.23,3.08,2.83,3.08h49.97c1.6,0,2.83-1.48,2.83-3.08s-1.23-3.08-2.83-3.08h-49.97Z"/>
    <path class="st0" d="M274.91,904.12v-107.56h24.74v82.58l34.58-3.45v22.27l-59.32,6.15ZM337.31,907.81v-55.87h-23.14v-22.27h23.14v-36.18h21.54v114.33h-21.54ZM363.64,907.81v-114.33h22.03v114.33h-22.03Z"/>
    <path class="st0" d="M391.82,905.96v-21.66h113.22v21.66h-113.22ZM396.12,815.26v-19.94h104.61v19.94h-104.61ZM396.12,867.08v-46.64h104.12v19.32h-76.67v7.01h78.39v20.31h-105.84Z"/>
    <path class="st0" d="M526.32,907.81l7.88-35.81h-23.01v-20.31h81.72v20.31h-31.5l-7.88,35.81h-27.2ZM539.37,846.15c-15.14,0-25.72-11.57-25.72-25.72s10.58-25.72,25.72-25.72h21.66c15.01,0,25.72,11.57,25.72,25.72s-10.71,25.72-25.72,25.72h-21.66ZM556.23,826.96c3.57,0,6.4-3.2,6.4-6.65,0-3.81-2.83-6.89-6.4-6.89h-11.94c-3.57,0-6.28,3.08-6.28,6.89,0,3.45,2.71,6.65,6.28,6.65h11.94ZM595.98,907.81v-11.32h-30.03v-19.32h30.03v-83.69h27.07v114.33h-27.07Z"/>
    <path class="st0" d="M630.55,883.2h113.22v22.77h-113.22v-22.77ZM709.93,834.83l1.23-17.23h-76.92v-22.27h105.84l-5.79,84.79h-27.81l1.85-24.49h-72.86v-20.8h74.46Z"/>
    <path class="st0" d="M759.76,813.42c0-22.27,15.63-24.37,33.84-24.37v18.46c-6.28,0-10.46,1.85-10.46,7.38v71.13c0,5.54,4.18,7.38,10.46,7.38v18.46c-18.21,0-33.84-2.09-33.84-24.37v-74.09Z"/>
    <path class="st0" d="M798.52,864.24v-18.46h113.22v18.46h-43.44v17.84h-25.97v-17.84h-43.81ZM801.6,822.65c28.06.37,38.77-4.55,39.75-10.95h-38.52v-18.21h104.61v18.21h-38.52c.99,6.4,11.57,11.32,39.75,10.95v18.34c-27.94,0-44.67-4.8-53.53-14.03-8.86,9.23-25.6,14.03-53.53,14.03v-18.34ZM802.83,907.81v-38.64h26.7v20.8h79.75v17.84h-106.45Z"/>
    <path class="st0" d="M950.5,887.5c0,22.27-15.63,24.37-33.84,24.37v-18.46c6.28,0,10.46-1.85,10.46-7.38v-71.13c0-5.54-4.18-7.38-10.46-7.38v-18.46c18.21,0,33.84,2.09,33.84,24.37v74.09Z"/>
  </g>
  <path class="st0" d="M958.9,245.24h-37.07c-2.02,0-3.9.55-5.53,1.49-6.07-93.09-83.72-166.97-178.32-166.97-84.63,0-155.72,59.14-174.1,138.26-29-21.01-64.26-21.04-93.28-.13-18.43-79.06-89.48-138.13-174.07-138.13-94.82,0-172.62,74.23-178.36,167.64-1.83-1.35-4.08-2.16-6.53-2.16h-37.07c-6.09,0-11.03,4.94-11.03,11.03v4.41c0,6.09,4.94,11.03,11.03,11.03h37.07c2.45,0,4.7-.81,6.53-2.16,5.74,93.4,83.54,167.64,178.36,167.64s178.72-80.17,178.72-178.72c0-3.83-.14-7.64-.37-11.41,26.22-27.11,58.55-27.05,84.74.21-.23,3.71-.36,7.44-.36,11.21,0,98.55,80.17,178.72,178.72,178.72s172.25-73.88,178.32-166.97c1.63.94,3.51,1.49,5.53,1.49h37.07c6.09,0,11.03-4.94,11.03-11.03v-4.41c0-6.09-4.94-11.03-11.03-11.03ZM296.54,408.96c-84.95,0-153.68-70.76-150.36-156.43,2.99-77.12,64.79-140.02,141.84-144.29,81.46-4.51,150.01,56.17,158.17,134.54-.32.45-.65.91-.97,1.37-1.33,1.91-.62,4.56,1.48,5.55l.04.02c.17,2.9.27,5.82.27,8.76,0,82.97-67.5,150.48-150.48,150.48ZM743.93,408.84c-85.67,3.32-156.42-65.41-156.42-150.36,0-2.98.11-5.93.28-8.87.01,0,.02-.01.04-.02,1.98-.93,2.65-3.43,1.4-5.23-.31-.44-.62-.88-.93-1.32,7.75-75.75,71.93-135.05,149.69-135.05,84.95,0,153.68,70.75,150.36,156.42-3.02,78.1-66.32,141.39-144.41,144.41Z"/>
</svg>