<?xml version="1.0" encoding="UTF-8"?>
<svg id="Layer_1" xmlns="http://www.w3.org/2000/svg" version="1.1" viewBox="0 0 1399.65 435.88">
  <!-- Generator: Adobe Illustrator 30.3.0, SVG Export Plug-In . SVG Version: 2.1.3 Build 182)  -->
  <defs>
    <style>
      .st0 {
        fill: #fff;
      }

      .st1 {
        fill: #bac8d6;
      }
    </style>
  </defs>
  <g>
    <path class="st0" d="M536.1,248.01v-70.4h-82.17v-43.24h221.04v43.24h-84.57v70.4h-54.3ZM604.57,128.36l6.97-61.51h-150.64V26.01h206.86l-11.29,102.35h-51.9,0Z"/>
    <path class="st0" d="M689.38,113.95c27.87-1.92,47.81-17.54,47.81-49.73h-45.41V26.02h138.39v38.2h-45.41c.24,32.19,20.18,47.81,47.81,49.73v39.16c-31.47-.72-55.98-10.33-71.6-31.95-16.1,21.62-40.6,31.23-71.6,31.95v-39.16h.01,0ZM746.08,159.84h114.84c26.43,0,47.09,17.78,47.09,43.49s-20.66,43.49-47.09,43.49h-114.84c-25.95,0-46.61-18.5-46.61-43.49s20.66-43.49,46.61-43.49h0ZM845.07,211.01c6.73,0,10.09-3.12,10.09-7.69,0-5.28-3.36-7.93-10.09-7.93h-83.37c-5.77,0-9.13,2.64-9.13,7.93,0,4.57,3.36,7.69,9.13,7.69h83.37ZM817.92,106.5v-36.28h34.6V22.41h53.1v132.62h-53.1v-48.53h-34.6Z"/>
    <path class="st0" d="M923.63,106.02c59.58,0,86.49-13.69,86.49-41.56h-85.29V26.02h134.06v26.43c0,77.6-66.31,92.02-135.26,92.02v-38.44h0ZM934.92,245.61v-94.42h196.53v94.42h-53.1v-6.25l-143.43,6.25ZM988.26,207.41l90.1-3.36v-17.06h-90.1v20.42ZM1078.6,145.18V22.41h52.86v37.24h24.99v42.04h-24.99v43.49h-52.86Z"/>
    <path class="st0" d="M1155.48,181.7c25.71-17.3,47.57-41.08,47.57-111.48V27.21h53.1v43.01c0,70.4,21.86,94.18,47.57,111.48v56.7c-30.75-15.38-56.94-35.8-74.24-68.23-17.3,32.43-43.25,52.86-74,68.23v-56.7h0ZM1317.41,245.61V22.41h54.06v223.2h-54.06Z"/>
    <path class="st0" d="M451.94,375.08c13.17-8.86,23.01-21.04,23.38-57.1v-22.03h26.71v22.03c.37,36.06,10.21,48.24,23.38,57.1v29.04c-15.63-7.75-28.3-18.09-36.8-34.21-8.37,16.12-21.29,26.46-36.67,34.21v-29.04ZM512.98,353.05v-22.27h22.52v-37.29h27.07v114.33h-27.07v-54.77h-22.52Z"/>
    <path class="st0" d="M683.3,353.66h-43.69v6.4h39.38v29.29h-77.65v4.18h79.5v14.28h-106.45v-30.64h77.65v-4.18h-77.65v-12.92h39.26v-6.4h-43.57v-17.84h113.22v17.84h0ZM593.7,331.76c-11.32,0-20.55-8.61-20.55-19.32s9.23-19.57,20.55-19.57h65.84c11.32,0,20.68,8.74,20.68,19.57s-9.35,19.32-20.68,19.32h-65.84ZM601.95,309.48c-1.6,0-2.83,1.48-2.83,3.08s1.23,3.08,2.83,3.08h49.97c1.6,0,2.83-1.48,2.83-3.08s-1.23-3.08-2.83-3.08h-49.97Z"/>
    <path class="st0" d="M691.9,404.12v-107.56h24.74v82.58l34.58-3.45v22.27l-59.32,6.15h0ZM754.3,407.81v-55.87h-23.14v-22.27h23.14v-36.18h21.54v114.33h-21.54ZM780.63,407.81v-114.33h22.03v114.33h-22.03Z"/>
    <path class="st0" d="M808.81,405.96v-21.66h113.22v21.66h-113.22ZM813.11,315.26v-19.94h104.61v19.94h-104.61ZM813.11,367.08v-46.64h104.12v19.32h-76.67v7.01h78.39v20.31h-105.84Z"/>
    <path class="st0" d="M943.31,407.81l7.88-35.81h-23.01v-20.31h81.72v20.31h-31.5l-7.88,35.81h-27.21ZM956.36,346.15c-15.14,0-25.72-11.57-25.72-25.72s10.58-25.72,25.72-25.72h21.66c15.01,0,25.72,11.57,25.72,25.72s-10.71,25.72-25.72,25.72h-21.66ZM973.22,326.96c3.57,0,6.4-3.2,6.4-6.65,0-3.81-2.83-6.89-6.4-6.89h-11.94c-3.57,0-6.28,3.08-6.28,6.89,0,3.45,2.71,6.65,6.28,6.65h11.94ZM1012.97,407.81v-11.32h-30.03v-19.32h30.03v-83.69h27.07v114.33h-27.07,0Z"/>
    <path class="st0" d="M1047.54,383.2h113.22v22.77h-113.22v-22.77h0ZM1126.92,334.83l1.23-17.23h-76.92v-22.27h105.84l-5.79,84.79h-27.81l1.85-24.49h-72.86v-20.8h74.46Z"/>
    <path class="st0" d="M1176.75,313.42c0-22.27,15.63-24.37,33.84-24.37v18.46c-6.28,0-10.46,1.85-10.46,7.38v71.13c0,5.54,4.18,7.38,10.46,7.38v18.46c-18.21,0-33.84-2.09-33.84-24.37v-74.09.02Z"/>
    <path class="st0" d="M1215.51,364.24v-18.46h113.22v18.46h-43.44v17.84h-25.97v-17.84h-43.81ZM1218.59,322.65c28.06.37,38.77-4.55,39.75-10.95h-38.52v-18.21h104.61v18.21h-38.52c.99,6.4,11.57,11.32,39.75,10.95v18.34c-27.94,0-44.67-4.8-53.53-14.03-8.86,9.23-25.6,14.03-53.53,14.03v-18.34h0ZM1219.82,407.81v-38.64h26.7v20.8h79.75v17.84h-106.45Z"/>
    <path class="st0" d="M1367.49,387.5c0,22.27-15.63,24.37-33.84,24.37v-18.46c6.28,0,10.46-1.85,10.46-7.38v-71.13c0-5.54-4.18-7.38-10.46-7.38v-18.46c18.21,0,33.84,2.09,33.84,24.37v74.09-.02Z"/>
  </g>
  <g>
    <g>
      <polygon class="st1" points="316.77 363.69 298.56 363.69 280.34 363.69 280.34 381.91 298.56 381.91 316.77 381.91 316.78 381.91 334.99 381.91 334.99 363.69 316.78 363.69 316.77 363.69"/>
      <polygon class="st1" points="116.37 363.69 98.15 363.69 98.15 381.91 116.37 381.91 134.59 381.91 152.81 381.91 152.81 363.69 134.59 363.69 116.37 363.69"/>
      <rect class="st1" x="334.99" y="345.47" width="18.22" height="18.22"/>
      <rect class="st1" x="262.12" y="345.47" width="18.22" height="18.22"/>
      <rect class="st1" x="152.81" y="345.47" width="18.22" height="18.22"/>
      <polygon class="st1" points="79.94 345.47 79.94 327.25 61.72 327.25 61.72 345.47 79.93 345.47 79.93 363.69 98.15 363.69 98.15 345.47 79.94 345.47"/>
      <rect class="st1" x="353.21" y="327.25" width="18.22" height="18.22"/>
      <rect class="st1" x="243.9" y="327.25" width="18.22" height="18.22"/>
      <rect class="st1" x="171.03" y="327.25" width="18.22" height="18.22"/>
    </g>
    <g>
      <rect class="st0" x="353.21" y="90.41" width="18.22" height="18.22"/>
      <rect class="st0" x="171.03" y="90.41" width="18.22" height="18.22"/>
      <polygon class="st0" points="334.99 72.19 334.99 53.97 316.78 53.97 316.77 53.97 298.56 53.97 280.34 53.97 280.34 72.19 262.12 72.19 262.12 90.41 243.9 90.41 243.9 108.63 243.9 126.85 243.9 145.07 225.68 145.07 225.68 163.29 225.68 163.29 225.68 181.5 225.68 181.51 225.68 199.72 225.68 217.94 225.68 236.16 225.68 254.38 225.68 272.6 225.68 290.82 243.9 290.82 243.9 309.03 243.9 327.25 262.12 327.25 262.12 345.47 280.34 345.47 280.34 363.69 298.56 363.69 316.77 363.69 316.78 363.69 334.99 363.69 334.99 345.47 316.78 345.47 316.78 327.25 298.56 327.25 298.56 309.03 298.56 290.81 280.34 290.81 280.34 272.6 280.34 254.38 280.34 236.16 280.34 217.94 280.34 199.72 280.34 181.51 298.56 181.51 316.77 181.51 316.77 199.72 334.99 199.72 334.99 181.5 316.78 181.5 316.78 163.29 316.78 163.29 316.78 145.07 298.56 145.07 298.56 126.85 298.56 108.63 316.78 108.63 316.78 90.41 334.99 90.41 353.21 90.41 353.21 72.19 334.99 72.19"/>
      <polygon class="st0" points="152.81 72.19 152.81 53.97 134.59 53.97 116.37 53.97 98.15 53.97 98.15 72.19 79.93 72.19 79.93 90.41 61.72 90.41 61.72 108.63 61.72 126.85 61.72 145.07 43.5 145.07 43.5 163.29 43.5 163.29 43.5 181.5 43.5 181.51 43.5 199.72 43.5 217.94 43.5 236.16 43.5 254.38 43.5 272.6 43.5 290.82 61.72 290.82 61.72 309.03 61.72 327.25 79.93 327.25 79.93 345.47 98.15 345.47 98.15 363.69 116.37 363.69 134.59 363.69 152.81 363.69 152.81 345.47 134.59 345.47 134.59 327.25 116.37 327.25 116.37 309.03 116.37 290.81 98.15 290.81 98.15 272.6 98.15 254.38 98.15 236.16 98.15 217.94 98.15 199.72 98.15 181.51 116.37 181.51 134.59 181.51 134.59 199.72 152.81 199.72 152.81 181.5 134.59 181.5 134.59 163.29 134.59 163.29 134.59 145.07 116.37 145.07 116.37 126.85 116.37 108.63 134.59 108.63 134.59 90.41 152.81 90.41 171.03 90.41 171.03 72.19 152.81 72.19"/>
    </g>
    <g>
      <polygon points="316.77 381.91 298.56 381.91 280.34 381.91 280.34 400.13 298.56 400.13 316.77 400.13 316.78 400.13 334.99 400.13 334.99 381.91 316.78 381.91 316.77 381.91"/>
      <polygon points="116.37 381.91 98.15 381.91 98.15 400.13 116.37 400.13 134.59 400.13 152.81 400.13 152.81 381.91 134.59 381.91 116.37 381.91"/>
      <rect x="334.99" y="363.69" width="18.22" height="18.22"/>
      <rect x="262.12" y="363.69" width="18.22" height="18.22"/>
      <rect x="152.81" y="363.69" width="18.22" height="18.22"/>
      <polygon points="79.94 363.69 79.94 345.47 61.72 345.47 61.72 363.69 79.93 363.69 79.93 381.91 98.15 381.91 98.15 363.69 79.94 363.69"/>
      <rect x="353.21" y="345.47" width="18.22" height="18.22"/>
      <rect x="243.9" y="345.47" width="18.22" height="18.22"/>
      <rect x="171.03" y="345.47" width="18.22" height="18.22"/>
      <path d="M243.9,309.03v-18.22h-18.22v-109.3h0v-18.22h0v-18.22h-18.21v-54.66h-18.22v18.22h-18.22v-18.22h-36.44v18.22h-18.22v36.44h18.22v18.22h0v18.21h-36.44v109.32h18.22v36.43h18.22v18.22h36.44v-18.22h18.22v18.22h18.22v-54.65h18.21v54.65h18.22v-36.44ZM134.59,181.51h18.22v18.21h-18.22v-18.21Z"/>
      <polygon points="61.72 309.03 61.72 290.81 43.5 290.81 43.5 272.6 43.5 254.38 43.5 236.16 43.5 217.94 43.5 199.72 43.5 181.51 43.5 181.5 43.5 163.29 43.5 163.29 43.5 145.07 25.28 145.07 25.28 163.29 25.28 163.29 25.28 181.5 25.28 181.51 25.28 199.72 25.28 217.94 25.28 236.16 25.28 254.38 25.28 272.6 25.28 290.82 43.5 290.82 43.5 309.03 43.5 327.25 43.5 345.47 61.72 345.47 61.72 327.25 61.72 309.03"/>
      <path d="M389.65,145.07v-54.66h-18.22v18.22h-18.22v-18.22h-36.44v18.22h-18.21v36.44h18.21v18.22h0v18.21h-36.43v109.32h18.22v36.43h18.21v18.22h36.44v-18.22h18.22v18.22h18.22v-54.65h18.22v-109.31h0v-18.22h0v-18.22h-18.22ZM316.78,181.51h18.21v18.21h-18.21v-18.21Z"/>
      <polygon points="243.9 126.85 243.9 108.63 243.9 90.41 225.68 90.41 225.68 108.63 225.68 126.85 225.68 145.07 243.9 145.07 243.9 126.85"/>
      <polygon points="61.72 126.85 61.72 108.63 61.72 90.41 43.5 90.41 43.5 108.63 43.5 126.85 43.5 145.07 61.72 145.07 61.72 126.85"/>
      <rect x="353.21" y="72.19" width="18.22" height="18.22"/>
      <rect x="243.9" y="72.19" width="18.22" height="18.22"/>
      <rect x="171.03" y="72.19" width="18.22" height="18.22"/>
      <polygon points="79.94 72.19 98.15 72.19 98.15 53.98 116.37 53.98 134.59 53.98 152.81 53.98 152.81 72.19 171.03 72.19 171.03 53.97 152.81 53.97 152.81 35.76 134.59 35.76 116.37 35.76 98.15 35.76 98.15 53.97 79.93 53.97 79.93 72.19 61.72 72.19 61.72 90.41 79.94 90.41 79.94 72.19"/>
      <polygon points="280.34 53.98 298.56 53.98 316.77 53.98 316.78 53.98 334.99 53.98 334.99 72.19 353.21 72.19 353.21 53.97 334.99 53.97 334.99 35.76 316.78 35.76 316.77 35.76 298.56 35.76 280.34 35.76 280.34 53.97 262.12 53.97 262.12 72.19 280.34 72.19 280.34 53.98"/>
    </g>
  </g>
</svg>