<?xml version="1.0" encoding="UTF-8"?>
<svg id="Layer_1" xmlns="http://www.w3.org/2000/svg" version="1.1" viewBox="0 0 427.83 87.59">
  <!-- Generator: Adobe Illustrator 30.3.0, SVG Export Plug-In . SVG Version: 2.1.3 Build 182)  -->
  <defs>
    <style>
      .st0 {
        fill: #54819b;
      }

      .st1 {
        fill: #f5aa00;
      }

      .st2 {
        fill: #231916;
      }
    </style>
  </defs>
  <g>
    <path class="st0" d="M373.93,77.39v3.67h-12.27v-3.67h1.37v-10.57h3.6v10.57h1.06l1.17-10.57h3.58l-1.15,10.57h2.63ZM373.3,61.7v3.74h-11.43v-3.74h11.43ZM379.02,61.49v20.47h-3.85v-20.47h3.85Z"/>
    <path class="st0" d="M385.46,69.5v3.79h-5.46v-3.79h5.46Z"/>
    <path class="st1" d="M386.12,69.4h18.61v2.77h-18.61v-2.77ZM393.32,66.18h3.85l.29-1.26h4.01l-.31,1.26h2.95v2.72h-17.35v-2.72h2.72v-1.26h3.85v1.26ZM403.9,61.7v2.89h-16.93v-2.89h16.93ZM404.1,79.23v2.72h-17.13v-5.95h13.08v-.54h-13.08v-2.72h16.93v5.92h-13.08v.57h13.28Z"/>
  </g>
  <g>
    <path class="st0" d="M20.56,26.08c-1.82-1.25-4.21-3.92-4.98-6.42-.7,2.61-2.72,5.33-5.02,6.95l-1.29-1.62c3.07-2.03,5.24-5.77,5.24-9.72v-3.58h2.13v3.49c0,4.02,2.28,7.41,5.15,9.28l-1.23,1.62ZM25.51,20.2v11.13h-2.04V9.85h2.04v8.54h3.18v1.8h-3.18Z"/>
    <path class="st0" d="M43.14,27.21c-1.73.23-4.45.46-6.95.6-2.24.12-4.71.23-6.42.23l-.33-1.82c1.67,0,3.64-.05,5.66-.14v-1.96c-2.3-.32-3.86-1.69-3.86-3.56,0-2.19,2.06-3.62,4.93-3.62s4.96,1.41,4.96,3.62c0,1.92-1.6,3.28-3.97,3.58v1.82c2.17-.12,4.41-.28,5.79-.49l.2,1.73ZM30.14,15.83v-1.73h12.17v1.73h-12.17ZM33.12,12.62v-1.75h5.9v1.75h-5.9ZM36.17,18.67c-1.6,0-2.76.81-2.76,1.89s1.16,1.89,2.76,1.89,2.81-.85,2.81-1.89-1.18-1.89-2.81-1.89ZM44.22,31.32V9.85h2.06v21.47h-2.06Z"/>
    <path class="st0" d="M59.57,22.34c-1.71-.58-3.84-2.22-4.76-4.13-.68,1.94-2.76,3.92-5,4.73l-1.14-1.66c2.61-.85,4.78-2.96,5.04-5.61h-4.45v-1.78h10.99v1.78h-4.34c.31,2.59,2.5,4.36,4.74,4.96l-1.07,1.71ZM51.74,31.02v-7.27h13.05v7.27h-13.05ZM51.98,12.19v-1.78h5.66v1.78h-5.66ZM62.73,25.48h-8.92v3.81h8.92v-3.81ZM64.76,17.26v5.36h-2.04v-12.77h2.04v5.61h3.05v1.8h-3.05Z"/>
    <path class="st0" d="M73.89,11.38c3.51,0,5.06,3.32,5.06,7.6s-1.56,7.57-5.06,7.57-5.09-3.32-5.09-7.6,1.58-7.57,5.09-7.57ZM73.89,13.25c-2.02,0-3.05,2.4-3.05,5.73s1.03,5.7,3.05,5.7,3.07-2.4,3.07-5.7-1.05-5.73-3.07-5.73ZM79.57,16.23l-.02-1.82h3.75v-4.55h2.06v21.47h-2.06v-8.01h-3.75l.02-1.82h3.73v-5.26h-3.73Z"/>
    <path class="st0" d="M99.92,16.46c0,2.75-1.93,4.57-4.49,4.99v3.51c2.17-.14,4.03-.28,5.37-.49l.2,1.73c-1.69.25-4.58.46-7.02.6-2.19.14-4.12.21-5.79.21l-.31-1.85c1.62,0,3.51,0,5.48-.09v-3.6c-2.63-.35-4.6-2.22-4.6-4.99,0-3.09,2.48-5.24,5.55-5.24s5.61,2.12,5.61,5.22ZM90.88,16.46c0,1.99,1.56,3.23,3.42,3.23s3.42-1.22,3.42-3.23-1.45-3.37-3.42-3.37-3.42,1.34-3.42,3.37ZM104.13,20.54v10.78h-2.04V9.85h2.04v8.87h3.14v1.82h-3.14Z"/>
    <path class="st0" d="M124.3,26.31c-1.97-1.2-4.3-3.88-4.96-6.26-.61,2.45-2.65,5.19-5.09,6.79l-1.34-1.59c3.14-1.89,5.35-5.54,5.35-9.6v-1.78h-4.58v-1.78h11.23v1.78h-4.52v1.75c0,4.16,2.21,7.39,5.11,9.07l-1.21,1.62ZM129.24,20.24v11.08h-2.04V9.85h2.04v8.56h3.2v1.82h-3.2Z"/>
    <path class="st0" d="M144.92,27.19c-2.1-1.06-4.69-3.62-5.37-5.77-.55,2.26-2.83,5.01-5.09,6.26l-1.29-1.62c2.83-1.52,5.31-4.64,5.31-8.77v-.35h-4.63v-1.78h11.36v1.78h-4.6v.32c0,4.13,2.43,6.63,5.48,8.22l-1.16,1.71ZM136.54,12.99v-1.8h6.07v1.8h-6.07ZM147.94,31.32V9.85h2.06v21.47h-2.06Z"/>
    <path class="st0" d="M166.49,25.88c-1.86.25-4.87.46-7.45.6-2.32.12-4.47.16-6.1.18l-.33-1.85c1.95,0,4.34-.02,6.75-.16,2.87-.12,5.28-.28,6.91-.48l.22,1.71ZM159.3,21.51c-3,0-5.31-1.99-5.31-4.89s2.32-5.06,5.31-5.06,5.35,1.99,5.35,5.06-2.37,4.89-5.35,4.89ZM159.3,13.39c-1.8,0-3.27,1.36-3.27,3.21s1.47,3.09,3.27,3.09,3.31-1.22,3.31-3.09c0-1.96-1.47-3.21-3.31-3.21ZM169.63,9.85v21.47h-2.04V9.85h2.04Z"/>
    <path class="st0" d="M177.97,21.63v-1.75h7.52v-4.48h2.06v4.48h8.84v1.75h-18.42ZM187.09,31.26c-4.56,0-7.1-1.55-7.1-3.99s2.54-4.02,7.1-4.02,7.06,1.55,7.06,4.02-2.5,3.99-7.06,3.99ZM194.19,10.99c0,.81-.02,1.41-.02,2.12-.04,1.92-.26,4.04-.59,5.5l-2-.28c.42-1.71.53-3.74.53-5.59h-11.93v-1.75h14.01ZM187.09,25c-3.05,0-4.98.81-4.98,2.26s1.93,2.26,4.98,2.26,4.96-.79,4.96-2.26-1.93-2.26-4.96-2.26Z"/>
    <path class="st0" d="M207.81,17.96v2.56h8.2v1.75h-18.42v-1.75h8.16v-2.56h-5.94v-7.25h13.81v1.78h-11.75v3.69h11.91v1.78h-5.96ZM206.8,31.32c-4.47,0-7.04-1.43-7.04-3.83s2.57-3.81,7.04-3.81,7.04,1.39,7.04,3.81-2.57,3.83-7.04,3.83ZM201.89,27.52c0,1.32,1.89,2.05,4.91,2.05s4.93-.74,4.93-2.05-1.89-2.08-4.93-2.08-4.91.76-4.91,2.08Z"/>
    <path class="st0" d="M226.17,26.78c-1.51-.99-3.35-3.09-3.92-5.17-.48,2.15-2.26,4.52-4.06,5.68l-1.29-1.45c2.52-1.66,4.32-4.36,4.32-8.47v-.37h-3.84v-1.75h9.6v1.75h-3.73v.3c0,4.16,1.95,6.65,4.12,7.92l-1.21,1.57ZM219.57,11.54h5.35v1.8h-5.35v-1.8ZM225.59,20.94v-1.78h2.92v-8.82h1.95v19.92h-1.95v-9.33h-2.92ZM232.46,31.32V9.85h2v21.47h-2Z"/>
  </g>
  <g>
    <path class="st2" d="M21.58,64.19h-4.32c-6.65,0-12.48-3.8-12.48-10.89v-4.6c0-7.1,5.84-10.89,12.48-10.89h4.32c6.69,0,12.48,3.8,12.48,10.89v4.6c0,7.1-5.79,10.89-12.48,10.89ZM36.34,83.63h-16.47c-8.45,0-11.58-2.3-11.58-7.75v-1.85c0-5.45,3.13-7.75,11.58-7.75h16.47c8.5,0,11.63,2.3,11.63,7.75v1.85c0,5.45-3.13,7.75-11.63,7.75ZM25.8,49.75c0-2.6-1.52-4.7-4.75-4.7h-3.23c-3.32,0-4.79,2.1-4.79,4.7v2.5c0,2.6,1.57,4.7,4.79,4.7h3.23c3.23,0,4.75-2.1,4.75-4.7v-2.5ZM35.82,72.78h-15.43c-3.13,0-3.85.55-3.85,2.15s.71,2.2,3.85,2.2h15.43c3.18,0,3.85-.55,3.85-2.2s-.66-2.15-3.85-2.15ZM41.47,64.64h-2.09v-6.1l-4.51.85v-6.85l4.51-.85v-3l-4.51.85v-6.85l4.51-.85v-.3c-1.23-1.4-1.61-3.45,0-3.45h8.26v22.34c0,1.65-3.28,4.2-6.17,4.2Z"/>
    <path class="st2" d="M90.79,65.99h-39.97v-6.5h45.38v1.35c0,2.4-2.61,5.15-5.41,5.15ZM81.77,83.63h-16.9c-8.59,0-11.44-2.6-11.44-7.3v-1.15c0-4.7,2.85-7.3,11.44-7.3h16.9c8.59,0,11.44,2.55,11.44,7.25v1.2c0,4.7-2.85,7.3-11.44,7.3ZM87.99,57.74h-33.99v-18.99h37.69v6.6h-29.43v5.8h31.05v1.95c0,2.65-2.85,4.65-5.32,4.65ZM81.06,74.18h-15.48c-3.09,0-3.85.15-3.85,1.55s.76,1.6,3.85,1.6h15.48c3.09,0,3.85-.2,3.85-1.6s-.76-1.55-3.85-1.55Z"/>
    <path class="st2" d="M137.07,81.58h-39.97v-7.25h18.37v-4.95h8.26v4.95h18.75v2.1c0,2.4-2.61,5.15-5.41,5.15ZM135.46,67.89h-36.74v-7.25h7.83l-1.23-12.19h8.31l1.28,12.19h9.35l1.33-12.19h8.31l-1.28,12.19h8.26v2.5c0,2.4-2.61,4.75-5.41,4.75ZM99.71,46.5v-7.25h39.78v7.25h-39.78Z"/>
    <path class="st2" d="M158.86,72.58c-3.04,5.2-9.49,8.1-15.95,8.25v-7.3c5.84-.5,11.73-4,11.73-16.74v-18.04h8.35v18.04c0,12.74,5.89,16.24,12.01,16.74v7.3c-6.6-.15-13.15-3-16.14-8.25ZM180.27,83.48h-2.09v-41.93c-1.23-1.4-1.61-3.45,0-3.45h8.31v41.18c0,1.65-3.32,4.2-6.22,4.2Z"/>
    <path class="st2" d="M212.41,66.59v-2.35c-1.42,1.25-3.84,2.35-7.26,2.35h-14.15v-27.83h29.72v27.83h-8.31ZM228.17,83.63h-33.7v-14.54h8.31v7.3h30.48v2.1c0,2.25-2.85,5.15-5.08,5.15ZM199.26,59.34h13.15v-13.34h-13.15v13.34ZM226.6,71.43h-2.09v-29.88c-1.23-1.4-1.61-3.45,0-3.45h8.26v29.08c0,1.7-3.28,4.25-6.17,4.25Z"/>
    <path class="st2" d="M265.48,55.49c0,7.6-4.84,11.79-12.48,11.79h-4.32c-7.6,0-12.48-4.2-12.48-11.79v-5.9c0-7.6,4.89-11.79,12.48-11.79h4.32c7.64,0,12.48,4.2,12.48,11.79v5.9ZM274.45,83.63h-33.7v-14.54h8.31v7.3h30.48v2.1c0,2.25-2.85,5.15-5.08,5.15ZM257.22,50.4c0-3.05-1.28-5.35-4.75-5.35h-3.23c-3.47,0-4.79,2.3-4.79,5.35v4.25c0,3.1,1.33,5.4,4.79,5.4h3.23c3.47,0,4.75-2.3,4.75-5.4v-4.25ZM272.88,71.43h-2.09v-10.89l-4.51.85v-6.85l4.51-.85v-4l-4.51.85v-6.85l4.51-.85v-1.3c-1.23-1.4-1.61-3.45,0-3.45h8.26v29.08c0,1.7-3.28,4.25-6.17,4.25Z"/>
    <path class="st2" d="M302.08,81.33h-18.99v-42.08h22.69v7.25h-14.38v27.59h15.86v1.6c0,2.35-2.9,5.65-5.17,5.65ZM310.43,83.48h-2.09v-41.98c-1.14-1.35-1.52-3.4,0-3.4h7.88v15.29l2.9-.75v-11.09c-1.23-1.4-1.61-3.45,0-3.45h7.83v41.18c0,1.65-2.85,4.2-5.74,4.2h-2.09v-23.54l-2.9.75v18.59c0,1.65-2.85,4.2-5.79,4.2Z"/>
  </g>
  <path class="st0" d="M376.72,40.28l-3.66-5.11c-.32,3.32-1.43,5.73-3.34,7.2-2.3,1.77-5.48,2.66-9.52,2.66h-7.87v-24.07h7.87c3.71,0,6.67.77,8.92,2.29h16.54c-1.1-3.07-2.77-5.69-5.04-7.84-4.39-4.16-10.84-6.24-19.35-6.24h-22.96v73.46h14.03v-25.81h8.93c8.51,0,14.96-2.06,19.35-6.19,2.88-2.7,4.79-6.16,5.79-10.35h-9.68Z"/>
  <path class="st1" d="M412.61,24.74h-10.33V3.96l-14.03,10.45v10.33h-20.79l10.04,14.03h10.75v20.79l14.03-10.04v-10.75h20.79l-10.45-14.03ZM395.26,34.14c-1.31,0-2.38-1.07-2.38-2.38s1.07-2.38,2.38-2.38,2.38,1.07,2.38,2.38-1.07,2.38-2.38,2.38Z"/>
</svg>