<?xml version="1.0" encoding="UTF-8"?>
<svg id="Layer_1" xmlns="http://www.w3.org/2000/svg" xmlns:xlink="http://www.w3.org/1999/xlink" version="1.1" viewBox="0 0 1496.9 300">
  <!-- Generator: Adobe Illustrator 30.3.0, SVG Export Plug-In . SVG Version: 2.1.3 Build 182)  -->
  <defs>
    <style>
      .st0 {
        fill: none;
      }

      .st1 {
        mix-blend-mode: multiply;
        opacity: .3;
      }

      .st2 {
        fill: #261f35;
      }

      .st3 {
        fill: #cbcecc;
      }

      .st4 {
        fill: #48405b;
      }

      .st5 {
        isolation: isolate;
      }

      .st6 {
        fill: #fff;
      }

      .st7 {
        fill: #f0f0f0;
      }

      .st8 {
        fill: #ff0358;
      }

      .st9 {
        clip-path: url(#clippath);
      }
    </style>
    <clipPath id="clippath">
      <path class="st0" d="M1332.1,146.8c.7,0,1.3-.2,2-.4,3.7-.9,7.3-2.9,9.1-6.3s.9-8.2-2.4-10c-3.1-1.7-6.8-1-10.2-.5-4.2.7-7.1,0-11.2-.9-2.2-.5-4.5.3-6,2-1.9,2.2-2,5.6-.7,8.2s3.7,4.5,6.3,5.8c4,2,8.7,2.7,13.1,2h0Z"/>
    </clipPath>
  </defs>
  <g class="st5">
    <g id="Layer_11" data-name="Layer_1">
      <g>
        <g class="st5">
          <g class="st5">
            <path class="st7" d="M89.7,251.7v-37.2h-51.1v-27h135.4v27h-51.1v37.2h-33.3ZM74.1,177c-17.5,0-31.8-14.6-31.8-32.4s14.3-32.4,31.8-32.4h64.5c17.5,0,31.8,14.6,31.8,32.4s-14.3,32.4-31.8,32.4h-64.5ZM131.9,151.8c4,0,6.9-3,6.9-7.1s-2.9-7.1-6.9-7.1h-51.2c-4,0-6.8,3.3-6.8,7.1s2.8,7.1,6.8,7.1h51.2Z"/>
            <path class="st7" d="M183,245.7v-81.4h51.2v-22.8h-51.2v-26.3h83.2v74.6h-50.8v26.1l61.8-5v27l-94.2,7.7ZM280.7,250.2V110.6h33.1v139.5h-33.1Z"/>
            <path class="st7" d="M404.7,171.9h52.3v22.5h-135.4v-22.5h52.1v-10.5h-47v-50.8h125.1v20.6h-92.3v9.2h93v21h-47.8v10.5ZM429.1,200.9c13.5,0,24.9,11.3,24.9,25.1s-11.3,24.9-24.9,24.9h-79.9c-13.7,0-24.7-11.1-24.7-24.9s11-25.1,24.7-25.1h79.9ZM420.4,229.3c1.8,0,3.2-1.8,3.2-3.8s-1.5-3.8-3.2-3.8h-63.1c-1.8,0-3.2,1.8-3.2,3.8s1.5,3.8,3.2,3.8h63.1Z"/>
            <path class="st7" d="M465.9,245.7V114.4h29.6v100.8l41.4-4.2v27.2l-70.9,7.5ZM540.5,250.2v-68.2h-27.7v-27.2h27.7v-44.2h25.8v139.5h-25.8ZM572,250.2V110.6h26.3v139.5h-26.3Z"/>
          </g>
        </g>
        <g class="st5">
          <g class="st5">
            <path class="st7" d="M1004.1,163.2c16-1.2,28.3-7.4,28.3-21.2h-26.8v-23.9h26.6v-10.5h31.8v10.5h26.3v23.9h-26.9c0,13.8,12.5,20,28.4,21.2v24.5c-19.6-.5-34.4-5.6-43.9-17-9.4,11.4-24.4,16.5-43.9,17v-24.5ZM1008.8,227c31.4.5,41.5-5,43.4-11.9h-41.9v-22.4h123.3v22.4h-41.9c1.9,6.9,11.9,12.3,43.4,11.9v23.1c-33,0-53-6-63.1-17.4-10.5,11.4-30.2,17.4-63.1,17.4v-23.1ZM1099.8,189v-78.4h32.4v24.3h15.3v26.3h-15.3v27.8h-32.4Z"/>
            <path class="st7" d="M1145.6,218.5c34.4-8.9,57-33,57-76.3h-56.2v-27h86.8v22.5c0,65.6-36.5,101.1-87.6,109.5v-28.7ZM1244.8,250.2V110.6h33.1v139.5h-33.1Z"/>
          </g>
        </g>
        <g>
          <g>
            <path class="st8" d="M711.5,41.2s23.2,13.9,23.8,43.6c.4,18.3,0,94.8,0,94.8h-115.3v-94.8c0-29.9,22.7-43.7,22.7-43.7,0,59.2,20.4,59.1,20.4,59.1h30s18.5.1,18.5-59.1h0ZM620,271v-55.2h127.8v-6.7h-127.8v-24.4h172.9v53.3h-127.8v7.3h127.8v25.6h-172.9,0ZM663,160.8h30v-13.8h-30v13.8ZM746.9,179.6v-102.1h45.9v102.1h-45.9Z"/>
            <path class="st8" d="M800.4,204.2v-77.9h58.2l1.6-13.3h-59.8v-32.3h105.3l-8.2,75.6h-54.1v13.3l84.3-4v33.3l-127.4,5.2h0ZM800.4,271v-59.6h45.5v25.4h135.8v34.2h-181.3ZM936.5,220.6v-74.8h-30.2v-35.6h30.2v-32.7h45.1v143.1h-45.1Z"/>
          </g>
          <g>
            <g>
              <path class="st6" d="M683.6,121.2c2.1,11.7,10.4,21.2,21.5,24.3,16.5,4.7,29.1-7.4,30.5-8.7,13.5-13.3,8.9-32.3,8.7-33.2-20.2,5.8-40.4,11.7-60.6,17.5Z"/>
              <path class="st6" d="M619.3,136.8c1.3,1.3,14,13.5,30.5,8.7,11-3.2,19.3-12.6,21.5-24.3-20.2-5.8-40.4-11.7-60.6-17.5-.2.9-4.8,19.8,8.7,33.2Z"/>
            </g>
            <path class="st3" d="M684,122.8c0,.2,0,.3.1.5,0,.2.1.5.2.7,0,.1,0,.2,0,.3,0,.3.2.5.2.8,0,0,0,.1,0,.2,0,.3.2.6.3.9,0,0,0,0,0,.1.1.3.2.6.3.9.1.4.3.7.4,1,.1.3.3.6.4.9,3.7,7.9,10.5,13.9,18.9,16.4,16.5,4.7,29.1-7.4,30.5-8.7,9-8.9,9.9-20.2,9.5-27.1-.2-2.7-.5-4.7-.7-5.6v-.5c-20.3,5.8-40.5,11.7-60.7,17.5,0,.4.1.7.2,1.1,0,.2,0,.3.1.5h0ZM715.3,115.9c13.6-4.2,23.2-4.9,26.1-5,0,4-.6,22.3-15.6,29.6-20.6,10-33.6-7.5-36.4-12.8,1.9-1.5,11.4-7.3,25.9-11.8Z"/>
            <path class="st2" d="M712.8,147.8c-2.7,0-5.4-.4-8-1.1-5.6-1.6-10.7-4.8-14.6-9.3-3.9-4.5-6.6-10-7.7-15.9l-.2-1,62.7-18.2.3,1.2c0,.2,1.4,5.4.8,12.3-.7,8.7-4.1,16.3-9.8,22-1,.9-4.5,4.3-9.9,6.9-4.6,2.2-9.1,3.3-13.7,3.3h0ZM685,122.1c2.3,10.7,10.2,19.5,20.4,22.4,6.6,1.9,13.4,1.2,20.1-2,5-2.4,8.4-5.5,9.3-6.4,5.4-5.4,8.5-12.3,9.1-20.5.4-4.7-.2-8.5-.5-10.3l-58.4,16.9h0Z"/>
            <path class="st2" d="M722.7,130.1c.7-.3,11-5.7,11.7-16,.2-3.4-.6-6.2-1.4-8-1.6,0-3.9.1-6.7.5-9.3,1.2-16.6,4.3-26.2,8.5-1.8.8-4.2,1.9-7,3.2.2.4.4.9.6,1.3.8,1.8,3.4,7.1,9.3,10.3,9.4,5.1,18.9.6,19.8.2h0Z"/>
            <path class="st6" d="M727.3,117.9c0,2-1.6,3.6-3.6,3.6s-3.6-1.6-3.6-3.6,1.6-3.6,3.6-3.6,3.6,1.6,3.6,3.6Z"/>
            <path class="st4" d="M707,129.2c1.9.4,3.8.5,5.7.6,1.3,0,2.6.1,3.8-.5,1.2-.6,1.9-2.2,1.5-3.2-.2-.5-.8-.7-1.2-.8-2-.7-3.7-.4-5.2-.6-2.2-.2-1.1-.2-7-.6-1.1,0-2.1-.2-2.5.4-.5.8.2,2.1.3,2.2.8,1.5,2.5,2,4.8,2.5h0Z"/>
            <g class="st1">
              <path d="M693.6,119.6c.4.8,1.1,2.4,2.4,4.2,4.5-2.4,11.2-5.3,19.4-7.9,7.8-2.4,14.3-3.7,19-4.3-.2-1.8-.6-3.4-1-4.7-13.4,3.9-26.8,7.8-40.2,11.6.2.4.3.8.5,1.1h0Z"/>
            </g>
            <path class="st2" d="M754.6,94.8l1.1,6.4c.1.6-.3,1.3-.9,1.4l-72,20.5-.8-3.5c-.3-1.1.3-2.2,1.4-2.5l69.7-23.3c.7-.2,1.5.2,1.7,1h0Z"/>
            <path class="st3" d="M671,122.3c0-.3.2-.7.2-1.1-20.2-5.8-40.4-11.7-60.6-17.5v.5c-.3.9-.7,2.9-.8,5.6-.4,6.9.5,18.2,9.5,27.1,1.3,1.3,14,13.5,30.5,8.7,8.4-2.4,15.2-8.5,18.9-16.4.2-.3.3-.6.4-.9.1-.3.3-.6.4-.9.1-.3.2-.7.4-1,0,0,.2-.7.3-1,0,0,.2-.7.3-1,0-.1.2-.8.3-1,0-.2,0-.3.1-.5,0-.2,0-.3.1-.5h0ZM665.4,127.7c-2.8,5.3-15.8,22.8-36.4,12.8-15-7.3-15.7-25.6-15.6-29.6,2.9.1,12.5.8,26.1,5,14.4,4.5,24,10.3,25.9,11.8Z"/>
            <path class="st2" d="M642,147.8c-4.6,0-9.2-1.1-13.7-3.3-5.4-2.6-8.9-5.9-9.9-6.9-5.7-5.7-9.1-13.3-9.8-22-.5-6.9.8-12.1.8-12.3l.3-1.2,62.7,18.2-.2,1c-1.1,5.9-3.7,11.5-7.7,15.9-4,4.5-9,7.7-14.6,9.3-2.7.8-5.3,1.1-8,1.1h0ZM611.5,105.2c-.3,1.8-.9,5.7-.5,10.3.7,8.3,3.7,15.2,9.1,20.5.9.9,4.2,4,9.3,6.4,6.7,3.2,13.5,3.9,20.1,2,10.2-2.9,18.1-11.7,20.4-22.4l-58.4-16.9h0Z"/>
            <path class="st2" d="M632.2,130.1c-.7-.3-11-5.7-11.7-16-.2-3.4.6-6.2,1.4-8,1.6,0,3.9.1,6.7.5,9.3,1.2,16.6,4.3,26.2,8.5,1.8.8,4.2,1.9,7,3.2-.2.4-.4.9-.6,1.3-.8,1.8-3.4,7.1-9.3,10.3-9.4,5.1-18.9.6-19.8.2h0Z"/>
            <path class="st6" d="M627.5,117.9c0,2,1.6,3.6,3.6,3.6s3.6-1.6,3.6-3.6-1.6-3.6-3.6-3.6-3.6,1.6-3.6,3.6Z"/>
            <path class="st4" d="M647.8,129.2c-1.9.4-3.8.5-5.7.6-1.3,0-2.6.1-3.8-.5-1.2-.6-1.9-2.2-1.5-3.2.2-.5.8-.7,1.2-.8,2-.7,3.7-.4,5.2-.6,2.2-.2,1.1-.2,7-.6,1.1,0,2.1-.2,2.5.4.5.8-.2,2.1-.3,2.2-.8,1.5-2.5,2-4.8,2.5h0Z"/>
            <g class="st1">
              <path d="M661.2,119.6c-.4.8-1.1,2.4-2.4,4.2-4.5-2.4-11.2-5.3-19.4-7.9-7.8-2.4-14.3-3.7-19-4.3.2-1.8.6-3.4,1-4.7,13.4,3.9,26.8,7.8,40.2,11.6-.2.4-.3.8-.5,1.1h0Z"/>
            </g>
            <path class="st2" d="M600.2,94.8l-1.1,6.4c-.1.6.3,1.3.9,1.4l72,20.5.8-3.5c.3-1.1-.3-2.2-1.4-2.5l-69.7-23.3c-.7-.2-1.5.2-1.7,1Z"/>
          </g>
        </g>
      </g>
      <g>
        <ellipse cx="1380.3" cy="253.3" rx="29.9" ry="7.3"/>
        <ellipse cx="1347.7" cy="255.7" rx="29.9" ry="7.3"/>
        <g>
          <path class="st6" d="M1362.6,184.4c-9.8,14.1-15.4,31-15.9,48.1-5.4-9.6-18.1-14.4-28.5-10.7s-17.3,15.3-15.5,26.2c.4,2.6,1.4,5.3,3.7,6.7,1.6,1,3.6,1.2,5.4,1.4,15.1,1.2,30.2,1.6,45.3,1,2.7-.1,6.1-.9,6.4-3.6,0-.9-.2-1.8-.5-2.6-7.2-20.8,5.2-45,13.1-62.3l-13.4-4.2h0Z"/>
          <path d="M1361.6,184.7c-7.7,11.1-12.9,23.9-15,37.2-.6,3.8-1,7.6-1.1,11.4.6-.2,1.3-.4,1.9-.5-5.9-10.3-19.7-15.3-30.8-10.7-5.6,2.3-10.1,6.8-12.7,12.1-2.6,5.3-3.7,12.1-1.6,17.8.6,1.4,1.3,2.9,2.6,3.9,1.4,1.2,3.1,1.7,4.8,1.9,4,.6,8.2.7,12.2.9,8.4.5,16.9.6,25.4.5,2.2,0,4.3,0,6.5-.1,1.7,0,3.5,0,5.2-.3,2.7-.5,5.7-2.1,5.3-5.3-.2-1.7-1-3.3-1.4-4.9-.4-1.7-.8-3.4-1-5.1-.4-3.4-.4-6.8,0-10.2,1.3-13.8,7.3-26.8,13-39.2.6-1.4,1.2-2.7,1.9-4.1.3-.6,0-1.3-.6-1.5-4.5-1.4-8.9-2.8-13.4-4.2-1.3-.4-1.8,1.6-.6,2,4.5,1.4,8.9,2.8,13.4,4.2-.2-.5-.4-1-.6-1.5-5.3,11.7-11.1,23.4-13.8,36-1.4,6.4-2,13-1.2,19.5.2,1.6.5,3.2.9,4.7.2.8.4,1.5.7,2.3.3.9.8,1.8.7,2.7,0,2.6-4.2,2.8-6.1,2.9-8.1.3-16.1.3-24.2,0-4-.1-8-.3-12-.5-2-.1-4-.2-6-.4-1.8-.1-3.7-.2-5.5-.6-3.2-.9-4.5-3.8-5-6.9-.5-2.8-.3-5.6.3-8.3,1.3-5.5,4.6-10.6,9.3-13.9,9.3-6.6,22.7-4.3,30,4.2.9,1,1.7,2.2,2.4,3.4.5.9,1.9.5,1.9-.5.4-13.2,3.8-26.3,10-38,1.7-3.3,3.7-6.5,5.8-9.6.8-1.1-1-2.1-1.8-1h0Z"/>
          <path d="M1344.8,232.8c1.2,2.3,2,4.8,2.2,7.5.7,0,1.3-.2,2-.3-.8-2.7-1.6-5.3-2.4-8-.4-1.3-2.4-.7-2,.6.8,2.7,1.6,5.3,2.4,8,.3,1.1,2.1.9,2-.3-.2-3-1.1-5.9-2.5-8.5-.6-1.2-2.4-.1-1.8,1h0Z"/>
        </g>
        <g>
          <path class="st6" d="M1329.2,184.4c-6.1,5.9-8,15.8-4.6,23.5,3.5,7.9,12.4,13.2,21,12.4.7,2.8,2,5.5,3.7,7.8-1.8.3-3.6.9-5.1,1.9-4.5,2.6-7.4,7.6-8.2,12.7-.4,3-.1,6.2,1.5,8.8,2.8,4.2,8.4,5.4,13.5,5.7,5.8.3,11.7,0,17.4-1,2.7-.5,5.4-1.1,7.6-2.7,3.4-2.5,4.8-6.9,5.8-11,1.3-5,2.2-10.1,2.8-15.2.4-3.6.6-7.2-.3-10.7-1.3-5.3-5.3-9.9-10.4-12-2-.8-4.1-1.2-6.2-1.2-3.3,0-6.5,1.3-8.9,3.6-6.1,5.9-16.5,2.1-19.3-5.2-2.4-6.3.6-14.1,6.3-17.7l-16.7.4h0Z"/>
          <path d="M1328.5,183.6c-5.1,5-7.4,12.4-6.3,19.5,1.1,7,5.8,12.9,12.1,16,3.5,1.7,7.5,2.6,11.4,2.2-.3-.2-.7-.5-1-.8.7,2.9,2,5.6,3.8,8.1.2-.5.4-1,.6-1.5-6.4,1.1-11.3,6.1-13.3,12.1-1,3-1.3,6.3-.5,9.4.7,2.9,2.6,5.3,5.2,6.9,2.5,1.5,5.3,2.1,8.2,2.5,3.6.4,7.3.4,10.9.2,3.7-.2,7.4-.6,11-1.4,3.2-.7,6.2-2,8.3-4.6,1.9-2.4,2.9-5.2,3.7-8.1,1-3.6,1.8-7.2,2.4-10.9,1.1-6.9,2.3-14.5-1-20.9-2.9-5.6-8.6-9.4-14.9-9.9-3.2-.2-6.4.6-9.1,2.5-1.1.8-2.1,1.9-3.2,2.6-1,.6-2.2,1.1-3.4,1.3-4.7.8-9.8-1.9-12.1-6-2.7-4.8-1.3-11.1,2.1-15.1.9-1,1.9-1.9,3.1-2.7.8-.5.6-1.9-.5-1.9-4.9.1-9.7.2-14.6.4-.7,0-1.4,0-2.1,0-1.3,0-1.3,2.1,0,2.1,4.9-.1,9.7-.2,14.6-.4.7,0,1.4,0,2.1,0-.2-.6-.3-1.3-.5-1.9-4.6,3-7.6,8.2-7.7,13.7,0,5.1,2.6,9.7,7.1,12.2,4.1,2.3,9.5,2.6,13.5-.2,1.2-.8,2.2-1.9,3.4-2.7,1.3-.8,2.7-1.4,4.2-1.6,3.2-.6,6.8.2,9.6,1.8,5.4,2.9,8.4,8.5,8.7,14.5.1,3.6-.4,7.3-.9,10.9-.6,3.7-1.3,7.3-2.3,10.9-.7,2.8-1.6,5.6-3.3,7.9-1.9,2.6-4.9,3.7-8,4.4-3.6.7-7.3,1.1-11.1,1.2-3.3.1-6.8.1-10.1-.3-2.7-.4-5.5-1.1-7.7-2.7-2.5-1.8-3.7-4.6-3.8-7.6-.2-5.8,2.9-11.8,7.9-14.7,1.5-.9,3.1-1.4,4.8-1.7.6-.1,1-1,.6-1.5-1.7-2.3-2.9-4.8-3.6-7.6,0-.4-.6-.8-1-.8-6.4.6-12.8-2.1-17-6.9-4.3-4.9-5.7-11.7-4-17.9.9-3.5,2.7-6.7,5.3-9.2.9-.9-.5-2.4-1.5-1.5h0Z"/>
        </g>
        <path class="st6" d="M1276.6,89c1.9,4,3.6,8.1,5.1,12.3l-6,6.8c-4.9-10.8-12.2-20.5-21.2-28.3-2.7,2.3-6.6,3.2-10,2.3-4-1.1-7.3-4.7-7.8-8.8-3.3,0-6.6,0-9.9,0-1.6,0-3.3,0-4.7-.7-2.9-1.5-3.5-5.8-1.7-8.6.8-1.2,1.9-2.1,3.2-2.8-.5-1.1-.7-1.8-.7-1.8-1.4-3.4.8-7.5,4.2-9,2-.9,4.3-1,6.6-.6-4.8,1.4-5.9-4.1-3.7-6.6,1.8-2,4.8-2.3,7.4-1.9,8.6,1.3,14.9,8.9,19.9,15.8,1.8-3.4,5.1-6.1,8.9-6.2,4.3-.2,8.6,4.1,7.5,8.3-1.1,4.1-5.9,5.8-9.9,6.9,4.9,7.3,9.2,15,12.8,22.9h0Z"/>
        <g>
          <path d="M1230.6,49.7c-1.8-1.2-1.1-4.1.4-5.3,2-1.5,4.8-1.4,7.1-.9,5,1.2,9.1,4.6,12.5,8.3,2,2.2,3.7,4.6,5.4,7,.4.6,1.4.7,1.8,0,2.1-3.8,6.8-7.2,11.1-4.9,1.8,1,3.4,2.8,3.5,5,0,2-1.2,3.7-2.8,4.8-2,1.3-4.3,2-6.6,2.7-.6.2-1,.9-.6,1.5,7.1,11,13,22.8,17.4,35.2,0-.3.2-.7.3-1-2,2.2-4.1,4.5-6.1,6.7.5,0,1.1.1,1.6.2-4.9-10.9-12.1-20.8-21.1-28.8-.4-.4-1-.4-1.5,0-2.8,2.3-7,3-10.3,1.4-3.1-1.4-5.3-4.4-5.8-7.8,0-.4-.6-.8-1-.8-3.3,0-6.6,0-9.9,0-2.4,0-5-.2-5.9-2.8-.7-1.9-.3-4.2,1.1-5.7,1.6-1.8,4.1-2.6,6.4-2.7,3.5-.1,6.8,1.2,10,2.4,1.2.5,1.8-1.5.6-2-5.7-2.1-13.2-4.3-18.2.6-1.9,1.9-2.7,4.5-2.2,7.1.5,2.7,2.6,4.6,5.4,5,2,.3,4.1.2,6.1.2,2.2,0,4.4,0,6.6,0-.3-.2-.7-.5-1-.8.6,4.1,3.4,7.6,7.2,9.2,4.1,1.8,8.9.9,12.3-1.9h-1.5c8.8,7.9,15.9,17.6,20.7,28.3.3.6,1.2.7,1.6.2,2-2.2,4.1-4.5,6.1-6.7.2-.3.4-.7.3-1-4.5-12.5-10.4-24.5-17.6-35.7-.2.5-.4,1-.6,1.5,4.5-1.3,10.6-3.4,10.9-9,.1-2.7-1.5-5.2-3.7-6.7-2.3-1.6-5.2-1.9-7.8-1-3.1,1-5.5,3.4-7,6.2h1.8c-3.5-5-7.3-10-12.5-13.4-2.5-1.7-5.4-2.8-8.4-3.2-2.8-.4-6.2,0-8.1,2.4-1.9,2.3-1.8,6.1.7,7.9,1.1.8,2.1-1,1-1.8h0Z"/>
          <path d="M1223.5,60.1c-.8-2.1-.1-4.3,1.3-6,1.7-1.9,4.1-2.6,6.6-2.5,5.7.3,9.9,4.7,13.6,8.5.9,1,2.4-.5,1.5-1.5-3.4-3.5-7.1-7.3-12-8.6-4.4-1.2-9.5-.2-12,4-1.2,2-1.6,4.4-.8,6.6.4,1.2,2.4.7,2-.5h0Z"/>
          <path d="M1248.5,57.6c-5.5.8-10.3,4.8-12.1,10.1-.4,1.3,1.6,1.8,2,.6,1.6-4.6,5.8-8,10.6-8.6.6,0,.8-.8.7-1.3-.2-.6-.7-.8-1.3-.7h0Z"/>
        </g>
        <path class="st8" d="M1312.8,178.3c16,7.8,34.7,11.2,52.1,11.8h.1c26.7.9,54.4-7.2,70.5-30.2,6.1-8.8,10.2-18.9,12.1-29.4,1.3-7.3,1.5-14.8.5-22.1-1.3-9.4-4.4-18.5-9.3-26.6-5-8.3-12.1-15.3-20.6-20-5.5-3-11.8-4.7-17.9-4-4.4-6.9-11.8-11.6-19.7-13.7-7.7-2.1-15.9-1.9-23.8-.7-9.2-5.4-20.2-8.5-30.8-7.3-32.5,3.5-55,38.3-56,67.9-.5,15.5,3.1,31.3,10.7,44.8,7.6,13.6,19.1,23.1,32.3,29.5h0Z"/>
        <path d="M1312.3,179.2c16.6,8.1,35.3,11.4,53.7,11.9,15.5.4,31.3-2.2,45.2-9.2,6.8-3.4,13.2-8,18.5-13.5,6.1-6.3,10.8-13.7,14.1-21.8,7.4-17.8,8-38.2.6-56.1-3.4-8.2-8.2-15.7-14.7-21.8-6.3-5.9-14.1-10.9-22.8-12-2.2-.3-4.5-.4-6.8-.1.3.2.6.3.9.5-7-10.9-20-15.6-32.5-15.8-4.1,0-8.2.3-12.3,1h.8c-7.3-4.1-15.4-6.9-23.9-7.5-7-.5-14,.8-20.5,3.3-12.1,4.7-22,13.5-29.4,24-7.3,10.4-12.3,22.7-13.9,35.3-2.1,15.7.9,32.4,7.6,46.7,3.3,7.1,7.7,13.6,13.1,19.2,5.1,5.3,11,9.7,17.4,13.3,1.6.9,3.2,1.8,4.9,2.6,1.2.6,2.2-1.2,1-1.8-7.8-3.8-15-8.7-21.1-14.8-6.4-6.4-11.4-14.2-14.9-22.6-6.7-16.2-8.7-34.8-4.1-51.8,3.9-14.4,11.9-27.9,23.1-37.7,5.6-4.9,12-8.8,19.1-11.1,8.3-2.8,17-3.3,25.5-1.2,4.8,1.2,9.4,3,13.7,5.3.5.3,1,.6,1.5.8s1.2,0,1.7,0c1.4-.2,2.7-.3,4.1-.5,2.7-.2,5.4-.3,8.1-.2,9.2.4,18.4,3.3,25.2,9.8,1.5,1.5,2.9,3.1,4,4.9.2.3.5.5.9.5,8.9-1,17.3,2.9,24.2,8.2,6.7,5.2,12,11.9,15.8,19.3,8.7,16.9,9.7,36.8,3.7,54.7-2.8,8.2-6.9,16-12.5,22.7-4.8,5.8-10.6,10.6-17.1,14.4-13,7.6-28.1,10.8-43,11.1-8.5.2-17.1-.5-25.5-1.9-9-1.4-17.8-3.7-26.2-7.1-2.1-.8-4.1-1.7-6.1-2.7-1.2-.6-2.2,1.2-1,1.8h0Z"/>
        <g>
          <g>
            <path class="st6" d="M1329.3,125.6c4.8,3.2,11.5,2.2,17.5-2.1,2.9-2.1,5.7-4.9,8-8.3,5.8-8.7,6.8-18.7,2.9-24.5-.8-1.2-1.8-2.3-3-3.1-7.1-4.8-18.6,0-25.6,10.4-7,10.5-7,22.8.1,27.6h0Z"/>
            <path class="st6" d="M1332.9,93.1c0-3-.8-5.6-2.2-7.7-.8-1.2-1.7-2.1-2.8-2.9-6.7-4.5-17.4,0-24,9.7-6.6,9.8-6.5,21.4.1,25.9,4.5,3,10.8,2,16.4-1.9,1-.7,1.9-1.4,2.8-2.3"/>
            <g>
              <path d="M1332.1,146.9c.7-.1,1.3-.2,2-.4,3.7-.9,7.3-2.9,9.1-6.3,1.7-3.4.9-8.2-2.4-10-3.1-1.7-6.8-1-10.2-.5-4.2.7-7.1,0-11.2-.9-2.2-.5-4.5.3-6,2-1.9,2.2-2,5.6-.7,8.2s3.7,4.5,6.3,5.8c4,2,8.7,2.7,13.1,2h0Z"/>
              <g class="st9">
                <path class="st6" d="M1323.5,125.5c-2.9,2.8-2.8,8.1.2,10.7s8.3,1.9,10.6-1.4c1.9,3.1,6.8,3.7,9.4,1.2,3.1-2.9,2.4-8,1.2-12.1"/>
              </g>
            </g>
            <path d="M1329.3,126.7c8.1,5.3,18.5-.6,24.1-6.9,5.8-6.6,10.1-16.4,7.7-25.2-1-3.7-3.4-7-7.1-8.6-3-1.3-6.4-1.3-9.6-.4-8.2,2.2-14.8,9.3-18.2,16.8-3.5,7.6-4.8,19,3.1,24.4,1.1.8,2.1-1,1-1.8-6.1-4.2-5.5-13-3.3-19.2,2.6-7.3,8.2-14.2,15.3-17.3,2.7-1.2,5.8-1.8,8.7-1.2,3.3.7,5.9,2.8,7.3,5.9,1.5,3.2,1.5,7,.9,10.4-.8,4.3-2.6,8.3-5.1,11.9-2.8,4.1-6.7,7.6-11.3,9.7-4,1.8-8.7,2.3-12.5-.2-1.1-.7-2.2,1.1-1,1.8h0Z"/>
            <path d="M1334.4,93.4c0-3.5-1.1-7.1-3.5-9.8-1.8-2-4.3-3.2-7-3.6-5.6-.7-11.2,2.2-15.2,5.8-5.1,4.5-8.9,10.9-9.9,17.7-.9,5.5,0,11.8,4.7,15.3,6.7,5,15.7.9,21.1-4,1-.9-.5-2.4-1.5-1.5-4.3,3.9-11.2,7.6-17,4.7-4.6-2.3-5.9-7.7-5.5-12.5.5-6.2,3.6-12.1,7.8-16.5,3.4-3.6,8.1-6.8,13.2-7,2.4-.1,4.8.4,6.7,1.9,2.9,2.2,4,5.9,4.1,9.4,0,1.3,2.1,1.3,2.1,0h0Z"/>
            <path d="M1341.8,122.6c1.7,1,3.6,1.3,5.6,1.1,2.9-2.1,5.7-4.9,8-8.3,5.8-8.7,6.8-18.7,2.9-24.5-5.6-1.7-13.2,2.4-17.7,10.1-5.1,8.5-4.5,18.2,1.2,21.6Z"/>
            <path d="M1324.2,113.5h0c-1.2,1.2-2.4,2.2-3.7,3-.3,0-.7,0-1,0-1.6,0-3.2-.4-4.6-1.2-5.7-3.4-6.3-13.1-1.2-21.6,4.4-7.4,11.5-11.5,17-10.3h0c.2,0,.5.1.7.2,1.6,2.3,2.3,5.3,2.3,8.7l-9.6,21.1h0Z"/>
            <path d="M1333.4,148.2c5.4-.8,11.6-4,12.5-9.9.4-2.5-.2-5.1-1.8-7-1.9-2.2-5-2.9-7.8-2.7-3.3.1-6.4,1.1-9.7.8-1.6-.1-3.2-.5-4.7-.8-1.5-.3-2.8-.6-4.3-.3-2.8.6-5,2.8-5.6,5.6-.6,2.8.2,5.7,1.9,8,4.4,5.7,12.7,7.5,19.5,6.6,1.3-.2.8-2.2-.6-2-5.4.8-11.6-.5-15.8-4.2-1.8-1.6-3.2-3.7-3.2-6.2,0-2.4,1.1-4.7,3.5-5.5,1.2-.4,2.4-.2,3.6,0,1.3.3,2.7.6,4,.8,2.8.4,5.4.1,8.2-.3,2.6-.4,5.6-.7,8,.6,1.8,1,2.7,3,2.8,5.1.2,5.9-6.1,8.9-11.1,9.7-1.3.2-.8,2.2.6,2h0Z"/>
          </g>
          <path d="M1351.9,73.4c3.1-2.3,8.4-1.2,9.8,2.6.5,1.2,2.5.7,2-.6-1.9-4.9-8.6-7-12.9-3.8-1.1.8,0,2.6,1,1.8h0Z"/>
          <path d="M1342,68.8c-1.7-4.3-8.1-5.7-11.3-2.2-.9,1,.6,2.5,1.5,1.5,2.1-2.3,6.7-1.8,7.8,1.2.5,1.2,2.5.7,2-.6h0Z"/>
        </g>
        <path class="st6" d="M1448,142c-1.2-3.2-5.2-5.3-8.8-5-4.5.4-8.3,3.3-11.7,6.2l-3.1-5.9c5.6-9.1,17.7-13.6,27.9-10.4,2.7.8,5.3,2.2,7.2,4.2,3.8,4.1,4.3,10.5,2.2,15.6-2.2,5.4-7,9.5-12.2,12,1.5,3.2,1.2,7.1-.8,10-2.4,3.5-7,5.4-11.1,4.1,11-27.5,23.9-13.6,19.8-6.4.4.8.6,1.7.6,2.4,0,1.6-.7,3.3-1.8,4.6.2.6.3,1.1.4,1.7.3,3.8-2,7.4-4.9,9.9-8.6,7.1-23.1,4.7-29.2-4.6-6.1-9.3-2.8-23.3,6.6-29.1,4.2-2.6,10.1-3.4,13.6,0,2.8-1.4,5.5-3.8,5.7-7,0-.9,0-1.7-.4-2.5h0Z"/>
        <g>
          <path d="M1451,162.8c2.3-.3,4.2,1.2,5.3,3.1,1.3,2.2,1,4.6-.7,6.6-.9,1,.6,2.5,1.5,1.5,2.3-2.7,2.8-6.1,1-9.1-1.6-2.8-4.4-4.5-7.7-4-1.3.2-.8,2.2.6,2h0Z"/>
          <path d="M1453.7,157.6c3.1,1.1,4.6,5.2,3.2,8.1-.6,1.2,1.2,2.2,1.8,1,2.1-4.1,0-9.5-4.4-11.1-1.2-.4-1.8,1.5-.6,2h0Z"/>
          <path d="M1441.3,174c3.6-.4,6.9-2.3,8.8-5.4,1.9-3.2,2.1-7.2.5-10.6l-.4,1.4c5.6-2.8,10.8-7.3,13-13.4,2.1-5.9.9-13.1-4.1-17.1-4.8-3.9-11.5-4.9-17.5-4-5.8.9-11.3,3.8-15.2,8.1-.6.6-1.1,1.2-1.6,1.9-.4.6-1.2,1.4-1.2,2.1s.6,1.4.8,1.8c.8,1.5,1.6,3.1,2.4,4.6.3.6,1.2.6,1.6.2,3.4-2.9,7.7-6.4,12.4-5.9,3.6.4,7.6,3.4,6.4,7.4-.7,2.4-2.9,4-5,5.1.4,0,.8.1,1.2.2-5.9-5.5-15.2-1.4-19.6,3.9-4.5,5.3-6.5,12.8-5,19.7,1.4,7,6.6,12.4,13.3,14.7,6.4,2.2,14.1,1.6,19.7-2.6,3.6-2.7,6.6-7,5.9-11.7-.6-4.2-4.7-7.9-9.1-6.8-1.3.3-.8,2.3.6,2,3.3-.8,6.4,2.5,6.6,5.6.2,3.7-2.2,7-5,9.1-4.8,3.7-11.3,4.4-17,2.7-5.8-1.7-10.7-6-12.4-11.9-1.8-5.8-.7-12.4,2.6-17.4,1.9-2.9,4.6-5.4,7.7-6.7,3.3-1.4,7.6-1.7,10.4.9.3.3.8.4,1.2.2,2.3-1.2,4.5-2.9,5.6-5.3,1-2.2.9-4.8-.5-6.8-1.3-1.9-3.3-3.3-5.6-3.9-2.6-.7-5.3-.3-7.7.7-3.1,1.3-5.7,3.4-8.2,5.5.5,0,1.1.1,1.6.2-1-2-2.1-4-3.1-5.9v1c4.7-7.5,13.8-11.7,22.5-10.8,4.6.4,9.7,2.4,12.2,6.4,2.5,3.9,2.5,9.2.6,13.4-2.3,5-6.7,8.6-11.6,11.1-.5.3-.6.9-.4,1.4,2.6,5.7-1.4,12.3-7.6,12.9-1.3.1-1.3,2.2,0,2.1h0Z"/>
        </g>
        <path class="st6" d="M1323.4,44.8c-1.1-2.2-4-2.5-6.2-2.2-1.9.2-3.6.5-5.3,1.1-3.2,1.1-6.2,2.6-9.1,4.3-2.9,1.7-5.6,3.9-8.1,6.1-1.1,1-2.2,2-3.2,3.1-1.1,1.2-2.2,2.4-2.6,4-.5,1.7-.7,3.9.5,5.4v-5c-.4.9-.8,1.9-1.2,2.8-.6,1.6.3,3.7,1.6,4.7,1.3,1,3.5,1.4,4.9.3.5-.3,1-.7,1.5-1h-5c2.8,1.6,6.1.5,8.3-1.6.8-.8,1.5-1.6,2.3-2.4,1.6-1.6,3.2-3,5-4.4l-1.2,1c2.9-2.2,6-4.1,9.1-6,1.5-.9,3.1-1.8,4.6-2.7,1-.7,2-1.2,2.9-2.1,1.5-1.4,2.1-3.4,1.2-5.3h0Z"/>
        <path class="st6" d="M1442.4,117.7c0,0,0-.2.1-.2-.4.3-.8.6-1.2.9,1.4-.5,1.9-1.2,2.5-2.6-.5.6-.9,1.2-1.4,1.8.7-.5,1.2-1.1,1.6-1.9.2-.4.3-.9.5-1.3.3-1.1.4-2.2.4-3.3,0-2-.2-3.9-.6-5.9-.3-1.9-1.1-3.7-2-5.5-1.1-2-3-4.5-5.4-5-1.8-.4-4.4.5-4.8,2.7-.2,1.3-.2,2.4.3,3.7.4,1,.7,2,1.2,3,.2.3.4.7.5,1,0-.2-.4-1-.2-.4.2.5.4,1,.6,1.4.3.7.7,1.5,1,2.2.2.5-.3-.9-.1-.3,0,.2.1.4.2.5.1.4.3.7.4,1.1.2.7.4,1.4.6,2.2.2.7.3,1.5.5,2.2.4,1,.7,2.3,1.5,3-.3-.4-.5-.9-.8-1.3.4,1,.8,1.8,1.9,2.3-.3-.4-.6-.8-.9-1.2,0,0,0,.2,0,.3.5,1.5,2.7,2,3.5.4h0Z"/>
      </g>
    </g>
  </g>
</svg>