<?xml version="1.0" encoding="UTF-8"?>
<svg id="Layer_1" xmlns="http://www.w3.org/2000/svg" version="1.1" viewBox="0 0 1399.65 435.88">
  <!-- Generator: Adobe Illustrator 30.3.0, SVG Export Plug-In . SVG Version: 2.1.3 Build 182)  -->
  <defs>
    <style>
      .st0 {
        fill: #1a191e;
      }

      .st1 {
        fill: #231f20;
      }

      .st2 {
        fill: #fff;
      }

      .st3 {
        fill: #bac8d6;
      }
    </style>
  </defs>
  <g>
    <path class="st1" d="M536.1,248.01v-70.4h-82.17v-43.24h221.04v43.24h-84.57v70.4h-54.3,0ZM604.57,128.36l6.97-61.51h-150.64V26.01h206.86l-11.29,102.35h-51.9Z"/>
    <path class="st1" d="M689.38,113.95c27.87-1.92,47.81-17.54,47.81-49.73h-45.41V26.02h138.39v38.2h-45.41c.24,32.19,20.18,47.81,47.81,49.73v39.16c-31.47-.72-55.98-10.33-71.6-31.95-16.1,21.62-40.6,31.23-71.6,31.95v-39.16h.01ZM746.08,159.84h114.84c26.43,0,47.09,17.78,47.09,43.49s-20.66,43.49-47.09,43.49h-114.84c-25.95,0-46.61-18.5-46.61-43.49s20.66-43.49,46.61-43.49h0ZM845.07,211.01c6.73,0,10.09-3.12,10.09-7.69,0-5.28-3.36-7.93-10.09-7.93h-83.37c-5.77,0-9.13,2.64-9.13,7.93,0,4.57,3.36,7.69,9.13,7.69h83.37ZM817.92,106.5v-36.28h34.6V22.41h53.1v132.62h-53.1v-48.53h-34.6Z"/>
    <path class="st1" d="M923.63,106.02c59.58,0,86.49-13.69,86.49-41.56h-85.29V26.02h134.06v26.43c0,77.6-66.31,92.02-135.26,92.02v-38.44h0ZM934.92,245.61v-94.42h196.53v94.42h-53.1v-6.25l-143.43,6.25ZM988.26,207.41l90.1-3.36v-17.06h-90.1v20.42ZM1078.6,145.18V22.41h52.86v37.24h24.99v42.04h-24.99v43.49h-52.86Z"/>
    <path class="st1" d="M1155.48,181.7c25.71-17.3,47.57-41.08,47.57-111.48V27.21h53.1v43.01c0,70.4,21.86,94.18,47.57,111.48v56.7c-30.75-15.38-56.94-35.8-74.24-68.23-17.3,32.43-43.25,52.86-74,68.23v-56.7ZM1317.41,245.61V22.41h54.06v223.2h-54.06Z"/>
    <path class="st1" d="M451.94,375.08c13.17-8.86,23.01-21.04,23.38-57.1v-22.03h26.71v22.03c.37,36.06,10.21,48.24,23.38,57.1v29.04c-15.63-7.75-28.3-18.09-36.8-34.21-8.37,16.12-21.29,26.46-36.67,34.21,0,0,0-29.04,0-29.04ZM512.98,353.05v-22.27h22.52v-37.29h27.07v114.33h-27.07v-54.77s-22.52,0-22.52,0Z"/>
    <path class="st1" d="M683.3,353.66h-43.69v6.4h39.38v29.29h-77.65v4.18h79.5v14.28h-106.45v-30.64h77.65v-4.18h-77.65v-12.92h39.26v-6.4h-43.57v-17.84h113.22v17.84h0ZM593.7,331.76c-11.32,0-20.55-8.61-20.55-19.32s9.23-19.57,20.55-19.57h65.84c11.32,0,20.68,8.74,20.68,19.57s-9.35,19.32-20.68,19.32h-65.84ZM601.95,309.48c-1.6,0-2.83,1.48-2.83,3.08s1.23,3.08,2.83,3.08h49.97c1.6,0,2.83-1.48,2.83-3.08s-1.23-3.08-2.83-3.08h-49.97Z"/>
    <path class="st1" d="M691.9,404.12v-107.56h24.74v82.58l34.58-3.45v22.27l-59.32,6.15h0ZM754.3,407.81v-55.87h-23.14v-22.27h23.14v-36.18h21.54v114.33h-21.54ZM780.63,407.81v-114.33h22.03v114.33h-22.03Z"/>
    <path class="st1" d="M808.81,405.96v-21.66h113.22v21.66h-113.22ZM813.11,315.26v-19.94h104.61v19.94h-104.61ZM813.11,367.08v-46.64h104.12v19.32h-76.67v7.01h78.39v20.31h-105.84Z"/>
    <path class="st1" d="M943.31,407.81l7.88-35.81h-23.01v-20.31h81.72v20.31h-31.5l-7.88,35.81h-27.21ZM956.36,346.15c-15.14,0-25.72-11.57-25.72-25.72s10.58-25.72,25.72-25.72h21.66c15.01,0,25.72,11.57,25.72,25.72s-10.71,25.72-25.72,25.72h-21.66ZM973.22,326.96c3.57,0,6.4-3.2,6.4-6.65,0-3.81-2.83-6.89-6.4-6.89h-11.94c-3.57,0-6.28,3.08-6.28,6.89,0,3.45,2.71,6.65,6.28,6.65h11.94ZM1012.97,407.81v-11.32h-30.03v-19.32h30.03v-83.69h27.07v114.33h-27.07Z"/>
    <path class="st1" d="M1047.54,383.2h113.22v22.77h-113.22v-22.77h0ZM1126.92,334.83l1.23-17.23h-76.92v-22.27h105.84l-5.79,84.79h-27.81l1.85-24.49h-72.86v-20.8h74.46Z"/>
    <path class="st1" d="M1176.75,313.42c0-22.27,15.63-24.37,33.84-24.37v18.46c-6.28,0-10.46,1.85-10.46,7.38v71.13c0,5.54,4.18,7.38,10.46,7.38v18.46c-18.21,0-33.84-2.09-33.84-24.37v-74.09.02Z"/>
    <path class="st1" d="M1215.51,364.24v-18.46h113.22v18.46h-43.44v17.84h-25.97v-17.84h-43.81ZM1218.59,322.65c28.06.37,38.77-4.55,39.75-10.95h-38.52v-18.21h104.61v18.21h-38.52c.99,6.4,11.57,11.32,39.75,10.95v18.34c-27.94,0-44.67-4.8-53.53-14.03-8.86,9.23-25.6,14.03-53.53,14.03v-18.34h0ZM1219.82,407.81v-38.64h26.7v20.8h79.75v17.84h-106.45Z"/>
    <path class="st1" d="M1367.49,387.5c0,22.27-15.63,24.37-33.84,24.37v-18.46c6.28,0,10.46-1.85,10.46-7.38v-71.13c0-5.54-4.18-7.38-10.46-7.38v-18.46c18.21,0,33.84,2.09,33.84,24.37v74.09-.02Z"/>
  </g>
  <g>
    <rect class="st0" x="316.77" y="381.91" width="18.22" height="18.22"/>
    <rect class="st0" x="298.56" y="381.91" width="18.22" height="18.22"/>
    <rect class="st0" x="280.34" y="381.91" width="18.22" height="18.22"/>
    <rect class="st0" x="134.59" y="381.91" width="18.22" height="18.22"/>
    <rect class="st0" x="116.37" y="381.91" width="18.22" height="18.22"/>
    <rect class="st0" x="98.15" y="381.91" width="18.22" height="18.22"/>
    <rect class="st0" x="334.99" y="363.69" width="18.22" height="18.22"/>
    <rect class="st3" x="316.77" y="363.69" width="18.22" height="18.22"/>
    <rect class="st3" x="298.56" y="363.69" width="18.22" height="18.22"/>
    <rect class="st3" x="280.34" y="363.69" width="18.22" height="18.22"/>
    <rect class="st0" x="262.12" y="363.69" width="18.22" height="18.22"/>
    <rect class="st0" x="152.81" y="363.69" width="18.22" height="18.22"/>
    <rect class="st3" x="134.59" y="363.69" width="18.22" height="18.22"/>
    <rect class="st3" x="116.37" y="363.69" width="18.22" height="18.22"/>
    <rect class="st3" x="98.15" y="363.69" width="18.22" height="18.22"/>
    <rect class="st0" x="79.93" y="363.69" width="18.22" height="18.22"/>
    <rect class="st0" x="353.21" y="345.47" width="18.22" height="18.22"/>
    <rect class="st3" x="334.99" y="345.47" width="18.22" height="18.22"/>
    <rect class="st2" x="316.77" y="345.47" width="18.22" height="18.22"/>
    <rect class="st2" x="298.56" y="345.47" width="18.22" height="18.22"/>
    <rect class="st2" x="280.34" y="345.47" width="18.22" height="18.22"/>
    <rect class="st3" x="262.12" y="345.47" width="18.22" height="18.22"/>
    <rect class="st0" x="243.9" y="345.47" width="18.22" height="18.22"/>
    <rect class="st0" x="171.03" y="345.47" width="18.22" height="18.22"/>
    <rect class="st3" x="152.81" y="345.47" width="18.22" height="18.22"/>
    <rect class="st2" x="134.59" y="345.47" width="18.22" height="18.22"/>
    <rect class="st2" x="116.37" y="345.47" width="18.22" height="18.22"/>
    <rect class="st2" x="98.15" y="345.47" width="18.22" height="18.22"/>
    <rect class="st3" x="79.93" y="345.47" width="18.22" height="18.22"/>
    <rect class="st0" x="61.72" y="345.47" width="18.22" height="18.22"/>
    <rect class="st0" x="371.43" y="327.25" width="18.22" height="18.22"/>
    <rect class="st3" x="353.21" y="327.25" width="18.22" height="18.22"/>
    <rect class="st0" x="334.99" y="327.25" width="18.22" height="18.22"/>
    <rect class="st0" x="316.77" y="327.25" width="18.22" height="18.22"/>
    <rect class="st2" x="298.56" y="327.25" width="18.22" height="18.22"/>
    <rect class="st2" x="280.34" y="327.25" width="18.22" height="18.22"/>
    <rect class="st2" x="262.12" y="327.25" width="18.22" height="18.22"/>
    <rect class="st3" x="243.9" y="327.25" width="18.22" height="18.22"/>
    <rect class="st0" x="225.68" y="327.25" width="18.22" height="18.22"/>
    <rect class="st0" x="189.25" y="327.25" width="18.22" height="18.22"/>
    <rect class="st3" x="171.03" y="327.25" width="18.22" height="18.22"/>
    <rect class="st0" x="152.81" y="327.25" width="18.22" height="18.22"/>
    <rect class="st0" x="134.59" y="327.25" width="18.22" height="18.22"/>
    <rect class="st2" x="116.37" y="327.25" width="18.22" height="18.22"/>
    <rect class="st2" x="98.15" y="327.25" width="18.22" height="18.22"/>
    <rect class="st2" x="79.93" y="327.25" width="18.22" height="18.22"/>
    <rect class="st3" x="61.72" y="327.25" width="18.22" height="18.22"/>
    <rect class="st0" x="43.5" y="327.25" width="18.22" height="18.22"/>
    <rect class="st0" x="371.43" y="309.03" width="18.22" height="18.22"/>
    <rect class="st0" x="353.21" y="309.03" width="18.22" height="18.22"/>
    <rect class="st0" x="334.99" y="309.03" width="18.22" height="18.22"/>
    <rect class="st0" x="316.77" y="309.03" width="18.22" height="18.22"/>
    <rect class="st0" x="298.56" y="309.03" width="18.22" height="18.22"/>
    <rect class="st2" x="280.34" y="309.03" width="18.22" height="18.22"/>
    <rect class="st2" x="262.12" y="309.03" width="18.22" height="18.22"/>
    <rect class="st2" x="243.9" y="309.03" width="18.22" height="18.22"/>
    <rect class="st0" x="225.68" y="309.03" width="18.22" height="18.22"/>
    <rect class="st0" x="189.25" y="309.03" width="18.22" height="18.22"/>
    <rect class="st0" x="171.03" y="309.03" width="18.22" height="18.22"/>
    <rect class="st0" x="152.81" y="309.03" width="18.22" height="18.22"/>
    <rect class="st0" x="134.59" y="309.03" width="18.22" height="18.22"/>
    <rect class="st0" x="116.37" y="309.03" width="18.22" height="18.22"/>
    <rect class="st2" x="98.15" y="309.03" width="18.22" height="18.22"/>
    <rect class="st2" x="79.93" y="309.03" width="18.22" height="18.22"/>
    <rect class="st2" x="61.72" y="309.03" width="18.22" height="18.22"/>
    <rect class="st0" x="43.5" y="309.03" width="18.22" height="18.22"/>
    <rect class="st0" x="371.43" y="290.81" width="18.22" height="18.22"/>
    <rect class="st0" x="353.21" y="290.81" width="18.22" height="18.22"/>
    <rect class="st0" x="334.99" y="290.81" width="18.22" height="18.22"/>
    <rect class="st0" x="316.77" y="290.81" width="18.22" height="18.22"/>
    <rect class="st0" x="298.56" y="290.81" width="18.22" height="18.22"/>
    <rect class="st2" x="280.34" y="290.81" width="18.22" height="18.22"/>
    <rect class="st2" x="262.12" y="290.81" width="18.22" height="18.22"/>
    <rect class="st2" x="243.9" y="290.81" width="18.22" height="18.22"/>
    <rect class="st0" x="225.68" y="290.81" width="18.22" height="18.22"/>
    <rect class="st0" x="189.25" y="290.81" width="18.22" height="18.22"/>
    <rect class="st0" x="171.03" y="290.81" width="18.22" height="18.22"/>
    <rect class="st0" x="152.81" y="290.81" width="18.22" height="18.22"/>
    <rect class="st0" x="134.59" y="290.81" width="18.22" height="18.22"/>
    <rect class="st0" x="116.37" y="290.81" width="18.22" height="18.22"/>
    <rect class="st2" x="98.15" y="290.81" width="18.22" height="18.22"/>
    <rect class="st2" x="79.93" y="290.81" width="18.22" height="18.22"/>
    <rect class="st2" x="61.72" y="290.81" width="18.22" height="18.22"/>
    <rect class="st0" x="43.5" y="290.81" width="18.22" height="18.22"/>
    <rect class="st0" x="389.65" y="272.6" width="18.22" height="18.22"/>
    <rect class="st0" x="371.43" y="272.6" width="18.22" height="18.22"/>
    <rect class="st0" x="353.21" y="272.6" width="18.22" height="18.22"/>
    <rect class="st0" x="334.99" y="272.6" width="18.22" height="18.22"/>
    <rect class="st0" x="316.77" y="272.6" width="18.22" height="18.22"/>
    <rect class="st0" x="298.56" y="272.6" width="18.22" height="18.22"/>
    <rect class="st0" x="280.34" y="272.6" width="18.22" height="18.22"/>
    <rect class="st2" x="262.12" y="272.6" width="18.22" height="18.22"/>
    <rect class="st2" x="243.9" y="272.6" width="18.22" height="18.22"/>
    <rect class="st2" x="225.68" y="272.6" width="18.22" height="18.22"/>
    <rect class="st0" x="207.46" y="272.6" width="18.22" height="18.22"/>
    <rect class="st0" x="189.25" y="272.6" width="18.22" height="18.22"/>
    <rect class="st0" x="171.03" y="272.6" width="18.22" height="18.22"/>
    <rect class="st0" x="152.81" y="272.6" width="18.22" height="18.22"/>
    <rect class="st0" x="134.59" y="272.6" width="18.22" height="18.22"/>
    <rect class="st0" x="116.37" y="272.6" width="18.22" height="18.22"/>
    <rect class="st0" x="98.15" y="272.6" width="18.22" height="18.22"/>
    <rect class="st2" x="79.93" y="272.6" width="18.22" height="18.22"/>
    <rect class="st2" x="61.72" y="272.6" width="18.22" height="18.22"/>
    <rect class="st2" x="43.5" y="272.6" width="18.22" height="18.22"/>
    <rect class="st0" x="25.28" y="272.6" width="18.22" height="18.22"/>
    <rect class="st0" x="389.65" y="254.38" width="18.22" height="18.22"/>
    <rect class="st0" x="371.43" y="254.38" width="18.22" height="18.22"/>
    <rect class="st0" x="353.21" y="254.38" width="18.22" height="18.22"/>
    <rect class="st0" x="334.99" y="254.38" width="18.22" height="18.22"/>
    <rect class="st0" x="316.77" y="254.38" width="18.22" height="18.22"/>
    <rect class="st0" x="298.56" y="254.38" width="18.22" height="18.22"/>
    <rect class="st0" x="280.34" y="254.38" width="18.22" height="18.22"/>
    <rect class="st2" x="262.12" y="254.38" width="18.22" height="18.22"/>
    <rect class="st2" x="243.9" y="254.38" width="18.22" height="18.22"/>
    <rect class="st2" x="225.68" y="254.38" width="18.22" height="18.22"/>
    <rect class="st0" x="207.46" y="254.38" width="18.22" height="18.22"/>
    <rect class="st0" x="189.25" y="254.38" width="18.22" height="18.22"/>
    <rect class="st0" x="171.03" y="254.38" width="18.22" height="18.22"/>
    <rect class="st0" x="152.81" y="254.38" width="18.22" height="18.22"/>
    <rect class="st0" x="134.59" y="254.38" width="18.22" height="18.22"/>
    <rect class="st0" x="116.37" y="254.38" width="18.22" height="18.22"/>
    <rect class="st0" x="98.15" y="254.38" width="18.22" height="18.22"/>
    <rect class="st2" x="79.93" y="254.38" width="18.22" height="18.22"/>
    <rect class="st2" x="61.72" y="254.38" width="18.22" height="18.22"/>
    <rect class="st2" x="43.5" y="254.38" width="18.22" height="18.22"/>
    <rect class="st0" x="25.28" y="254.38" width="18.22" height="18.22"/>
    <rect class="st0" x="389.65" y="236.16" width="18.22" height="18.22"/>
    <rect class="st0" x="371.43" y="236.16" width="18.22" height="18.22"/>
    <rect class="st0" x="353.21" y="236.16" width="18.22" height="18.22"/>
    <rect class="st0" x="334.99" y="236.16" width="18.22" height="18.22"/>
    <rect class="st0" x="316.77" y="236.16" width="18.22" height="18.22"/>
    <rect class="st0" x="298.56" y="236.16" width="18.22" height="18.22"/>
    <rect class="st0" x="280.34" y="236.16" width="18.22" height="18.22"/>
    <rect class="st2" x="262.12" y="236.16" width="18.22" height="18.22"/>
    <rect class="st2" x="243.9" y="236.16" width="18.22" height="18.22"/>
    <rect class="st2" x="225.68" y="236.16" width="18.22" height="18.22"/>
    <rect class="st0" x="207.46" y="236.16" width="18.22" height="18.22"/>
    <rect class="st0" x="189.25" y="236.16" width="18.22" height="18.22"/>
    <rect class="st0" x="171.03" y="236.16" width="18.22" height="18.22"/>
    <rect class="st0" x="152.81" y="236.16" width="18.22" height="18.22"/>
    <rect class="st0" x="134.59" y="236.16" width="18.22" height="18.22"/>
    <rect class="st0" x="116.37" y="236.16" width="18.22" height="18.22"/>
    <rect class="st0" x="98.15" y="236.16" width="18.22" height="18.22"/>
    <rect class="st2" x="79.93" y="236.16" width="18.22" height="18.22"/>
    <rect class="st2" x="61.72" y="236.16" width="18.22" height="18.22"/>
    <rect class="st2" x="43.5" y="236.16" width="18.22" height="18.22"/>
    <rect class="st0" x="25.28" y="236.16" width="18.22" height="18.22"/>
    <rect class="st0" x="389.65" y="217.94" width="18.22" height="18.22"/>
    <rect class="st0" x="371.43" y="217.94" width="18.22" height="18.22"/>
    <rect class="st0" x="353.21" y="217.94" width="18.22" height="18.22"/>
    <rect class="st0" x="334.99" y="217.94" width="18.22" height="18.22"/>
    <rect class="st0" x="316.77" y="217.94" width="18.22" height="18.22"/>
    <rect class="st0" x="298.56" y="217.94" width="18.22" height="18.22"/>
    <rect class="st0" x="280.34" y="217.94" width="18.22" height="18.22"/>
    <rect class="st2" x="262.12" y="217.94" width="18.22" height="18.22"/>
    <rect class="st2" x="243.9" y="217.94" width="18.22" height="18.22"/>
    <rect class="st2" x="225.68" y="217.94" width="18.22" height="18.22"/>
    <rect class="st0" x="207.46" y="217.94" width="18.22" height="18.22"/>
    <rect class="st0" x="189.25" y="217.94" width="18.22" height="18.22"/>
    <rect class="st0" x="171.03" y="217.94" width="18.22" height="18.22"/>
    <rect class="st0" x="152.81" y="217.94" width="18.22" height="18.22"/>
    <rect class="st0" x="134.59" y="217.94" width="18.22" height="18.22"/>
    <rect class="st0" x="116.37" y="217.94" width="18.22" height="18.22"/>
    <rect class="st0" x="98.15" y="217.94" width="18.22" height="18.22"/>
    <rect class="st2" x="79.93" y="217.94" width="18.22" height="18.22"/>
    <rect class="st2" x="61.72" y="217.94" width="18.22" height="18.22"/>
    <rect class="st2" x="43.5" y="217.94" width="18.22" height="18.22"/>
    <rect class="st0" x="25.28" y="217.94" width="18.22" height="18.22"/>
    <rect class="st0" x="389.65" y="199.72" width="18.22" height="18.22"/>
    <rect class="st0" x="371.43" y="199.72" width="18.22" height="18.22"/>
    <rect class="st0" x="353.21" y="199.72" width="18.22" height="18.22"/>
    <rect class="st0" x="334.99" y="199.72" width="18.22" height="18.22"/>
    <rect class="st0" x="316.77" y="199.72" width="18.22" height="18.22"/>
    <rect class="st0" x="298.56" y="199.72" width="18.22" height="18.22"/>
    <rect class="st0" x="280.34" y="199.72" width="18.22" height="18.22"/>
    <rect class="st2" x="262.12" y="199.72" width="18.22" height="18.22"/>
    <rect class="st2" x="243.9" y="199.72" width="18.22" height="18.22"/>
    <rect class="st2" x="225.68" y="199.72" width="18.22" height="18.22"/>
    <rect class="st0" x="207.46" y="199.72" width="18.22" height="18.22"/>
    <rect class="st0" x="189.25" y="199.72" width="18.22" height="18.22"/>
    <rect class="st0" x="171.03" y="199.72" width="18.22" height="18.22"/>
    <rect class="st0" x="152.81" y="199.72" width="18.22" height="18.22"/>
    <rect class="st0" x="134.59" y="199.72" width="18.22" height="18.22"/>
    <rect class="st0" x="116.37" y="199.72" width="18.22" height="18.22"/>
    <rect class="st0" x="98.15" y="199.72" width="18.22" height="18.22"/>
    <rect class="st2" x="79.93" y="199.72" width="18.22" height="18.22"/>
    <rect class="st2" x="61.72" y="199.72" width="18.22" height="18.22"/>
    <rect class="st2" x="43.5" y="199.72" width="18.22" height="18.22"/>
    <rect class="st0" x="25.28" y="199.72" width="18.22" height="18.22"/>
    <rect class="st0" x="389.65" y="181.5" width="18.22" height="18.22"/>
    <rect class="st0" x="371.43" y="181.5" width="18.22" height="18.22"/>
    <rect class="st0" x="353.21" y="181.5" width="18.22" height="18.22"/>
    <rect class="st0" x="334.99" y="181.5" width="18.22" height="18.22"/>
    <rect class="st2" x="316.77" y="181.5" width="18.22" height="18.22"/>
    <rect class="st0" x="298.56" y="181.5" width="18.22" height="18.22"/>
    <rect class="st0" x="280.34" y="181.5" width="18.22" height="18.22"/>
    <rect class="st2" x="262.12" y="181.5" width="18.22" height="18.22"/>
    <rect class="st2" x="243.9" y="181.5" width="18.22" height="18.22"/>
    <rect class="st2" x="225.68" y="181.5" width="18.22" height="18.22"/>
    <rect class="st0" x="207.46" y="181.5" width="18.22" height="18.22"/>
    <rect class="st0" x="189.25" y="181.5" width="18.22" height="18.22"/>
    <rect class="st0" x="171.03" y="181.5" width="18.22" height="18.22"/>
    <rect class="st0" x="152.81" y="181.5" width="18.22" height="18.22"/>
    <rect class="st2" x="134.59" y="181.5" width="18.22" height="18.22"/>
    <rect class="st0" x="116.37" y="181.5" width="18.22" height="18.22"/>
    <rect class="st0" x="98.15" y="181.5" width="18.22" height="18.22"/>
    <rect class="st2" x="79.93" y="181.5" width="18.22" height="18.22"/>
    <rect class="st2" x="61.72" y="181.5" width="18.22" height="18.22"/>
    <rect class="st2" x="43.5" y="181.5" width="18.22" height="18.22"/>
    <rect class="st0" x="25.28" y="181.5" width="18.22" height="18.22"/>
    <rect class="st0" x="389.65" y="163.29" width="18.22" height="18.22"/>
    <rect class="st0" x="371.43" y="163.29" width="18.22" height="18.22"/>
    <rect class="st0" x="353.21" y="163.29" width="18.22" height="18.22"/>
    <rect class="st0" x="334.99" y="163.29" width="18.22" height="18.22"/>
    <rect class="st0" x="316.77" y="163.29" width="18.22" height="18.22"/>
    <rect class="st2" x="298.56" y="163.29" width="18.22" height="18.22"/>
    <rect class="st2" x="280.34" y="163.29" width="18.22" height="18.22"/>
    <rect class="st2" x="262.12" y="163.29" width="18.22" height="18.22"/>
    <rect class="st2" x="243.9" y="163.29" width="18.22" height="18.22"/>
    <rect class="st2" x="225.68" y="163.29" width="18.22" height="18.22"/>
    <rect class="st0" x="207.46" y="163.29" width="18.22" height="18.22"/>
    <rect class="st0" x="189.25" y="163.29" width="18.22" height="18.22"/>
    <rect class="st0" x="171.03" y="163.29" width="18.22" height="18.22"/>
    <rect class="st0" x="152.81" y="163.29" width="18.22" height="18.22"/>
    <rect class="st0" x="134.59" y="163.29" width="18.22" height="18.22"/>
    <rect class="st2" x="116.37" y="163.29" width="18.22" height="18.22"/>
    <rect class="st2" x="98.15" y="163.29" width="18.22" height="18.22"/>
    <rect class="st2" x="79.93" y="163.29" width="18.22" height="18.22"/>
    <rect class="st2" x="61.72" y="163.29" width="18.22" height="18.22"/>
    <rect class="st2" x="43.5" y="163.29" width="18.22" height="18.22"/>
    <rect class="st0" x="25.28" y="163.29" width="18.22" height="18.22"/>
    <rect class="st0" x="389.65" y="145.07" width="18.22" height="18.22"/>
    <rect class="st0" x="371.43" y="145.07" width="18.22" height="18.22"/>
    <rect class="st0" x="353.21" y="145.07" width="18.22" height="18.22"/>
    <rect class="st0" x="334.99" y="145.07" width="18.22" height="18.22"/>
    <rect class="st0" x="316.77" y="145.07" width="18.22" height="18.22"/>
    <rect class="st2" x="298.56" y="145.07" width="18.22" height="18.22"/>
    <rect class="st2" x="280.34" y="145.07" width="18.22" height="18.22"/>
    <rect class="st2" x="262.12" y="145.07" width="18.22" height="18.22"/>
    <rect class="st2" x="243.9" y="145.07" width="18.22" height="18.22"/>
    <rect class="st2" x="225.68" y="145.07" width="18.22" height="18.22"/>
    <rect class="st0" x="207.46" y="145.07" width="18.22" height="18.22"/>
    <rect class="st0" x="189.25" y="145.07" width="18.22" height="18.22"/>
    <rect class="st0" x="171.03" y="145.07" width="18.22" height="18.22"/>
    <rect class="st0" x="152.81" y="145.07" width="18.22" height="18.22"/>
    <rect class="st0" x="134.59" y="145.07" width="18.22" height="18.22"/>
    <rect class="st2" x="116.37" y="145.07" width="18.22" height="18.22"/>
    <rect class="st2" x="98.15" y="145.07" width="18.22" height="18.22"/>
    <rect class="st2" x="79.93" y="145.07" width="18.22" height="18.22"/>
    <rect class="st2" x="61.72" y="145.07" width="18.22" height="18.22"/>
    <rect class="st2" x="43.5" y="145.07" width="18.22" height="18.22"/>
    <rect class="st0" x="25.28" y="145.07" width="18.22" height="18.22"/>
    <rect class="st0" x="371.43" y="126.85" width="18.22" height="18.22"/>
    <rect class="st0" x="353.21" y="126.85" width="18.22" height="18.22"/>
    <rect class="st0" x="334.99" y="126.85" width="18.22" height="18.22"/>
    <rect class="st0" x="316.77" y="126.85" width="18.22" height="18.22"/>
    <rect class="st0" x="298.56" y="126.85" width="18.22" height="18.22"/>
    <rect class="st2" x="280.34" y="126.85" width="18.22" height="18.22"/>
    <rect class="st2" x="262.12" y="126.85" width="18.22" height="18.22"/>
    <rect class="st2" x="243.9" y="126.85" width="18.22" height="18.22"/>
    <rect class="st0" x="225.68" y="126.85" width="18.22" height="18.22"/>
    <rect class="st0" x="189.25" y="126.85" width="18.22" height="18.22"/>
    <rect class="st0" x="171.03" y="126.85" width="18.22" height="18.22"/>
    <rect class="st0" x="152.81" y="126.85" width="18.22" height="18.22"/>
    <rect class="st0" x="134.59" y="126.85" width="18.22" height="18.22"/>
    <rect class="st0" x="116.37" y="126.85" width="18.22" height="18.22"/>
    <rect class="st2" x="98.15" y="126.85" width="18.22" height="18.22"/>
    <rect class="st2" x="79.93" y="126.85" width="18.22" height="18.22"/>
    <rect class="st2" x="61.72" y="126.85" width="18.22" height="18.22"/>
    <rect class="st0" x="43.5" y="126.85" width="18.22" height="18.22"/>
    <rect class="st0" x="371.43" y="108.63" width="18.22" height="18.22"/>
    <rect class="st0" x="353.21" y="108.63" width="18.22" height="18.22"/>
    <rect class="st0" x="334.99" y="108.63" width="18.22" height="18.22"/>
    <rect class="st0" x="316.77" y="108.63" width="18.22" height="18.22"/>
    <rect class="st0" x="298.56" y="108.63" width="18.22" height="18.22"/>
    <rect class="st2" x="280.34" y="108.63" width="18.22" height="18.22"/>
    <rect class="st2" x="262.12" y="108.63" width="18.22" height="18.22"/>
    <rect class="st2" x="243.9" y="108.63" width="18.22" height="18.22"/>
    <rect class="st0" x="225.68" y="108.63" width="18.22" height="18.22"/>
    <rect class="st0" x="189.25" y="108.63" width="18.22" height="18.22"/>
    <rect class="st0" x="171.03" y="108.63" width="18.22" height="18.22"/>
    <rect class="st0" x="152.81" y="108.63" width="18.22" height="18.22"/>
    <rect class="st0" x="134.59" y="108.63" width="18.22" height="18.22"/>
    <rect class="st0" x="116.37" y="108.63" width="18.22" height="18.22"/>
    <rect class="st2" x="98.15" y="108.63" width="18.22" height="18.22"/>
    <rect class="st2" x="79.93" y="108.63" width="18.22" height="18.22"/>
    <rect class="st2" x="61.72" y="108.63" width="18.22" height="18.22"/>
    <rect class="st0" x="43.5" y="108.63" width="18.22" height="18.22"/>
    <rect class="st0" x="371.43" y="90.41" width="18.22" height="18.22"/>
    <rect class="st2" x="353.21" y="90.41" width="18.22" height="18.22"/>
    <rect class="st0" x="334.99" y="90.41" width="18.22" height="18.22"/>
    <rect class="st0" x="316.77" y="90.41" width="18.22" height="18.22"/>
    <rect class="st2" x="298.56" y="90.41" width="18.22" height="18.22"/>
    <rect class="st2" x="280.34" y="90.41" width="18.22" height="18.22"/>
    <rect class="st2" x="262.12" y="90.41" width="18.22" height="18.22"/>
    <rect class="st2" x="243.9" y="90.41" width="18.22" height="18.22"/>
    <rect class="st0" x="225.68" y="90.41" width="18.22" height="18.22"/>
    <rect class="st0" x="189.25" y="90.41" width="18.22" height="18.22"/>
    <rect class="st2" x="171.03" y="90.41" width="18.22" height="18.22"/>
    <rect class="st0" x="152.81" y="90.41" width="18.22" height="18.22"/>
    <rect class="st0" x="134.59" y="90.41" width="18.22" height="18.22"/>
    <rect class="st2" x="116.37" y="90.41" width="18.22" height="18.22"/>
    <rect class="st2" x="98.15" y="90.41" width="18.22" height="18.22"/>
    <rect class="st2" x="79.93" y="90.41" width="18.22" height="18.22"/>
    <rect class="st2" x="61.72" y="90.41" width="18.22" height="18.22"/>
    <rect class="st0" x="43.5" y="90.41" width="18.22" height="18.22"/>
    <rect class="st0" x="353.21" y="72.19" width="18.22" height="18.22"/>
    <rect class="st2" x="334.99" y="72.19" width="18.22" height="18.22"/>
    <rect class="st2" x="316.77" y="72.19" width="18.22" height="18.22"/>
    <rect class="st2" x="298.56" y="72.19" width="18.22" height="18.22"/>
    <rect class="st2" x="280.34" y="72.19" width="18.22" height="18.22"/>
    <rect class="st2" x="262.12" y="72.19" width="18.22" height="18.22"/>
    <rect class="st0" x="243.9" y="72.19" width="18.22" height="18.22"/>
    <rect class="st0" x="171.03" y="72.19" width="18.22" height="18.22"/>
    <rect class="st2" x="152.81" y="72.19" width="18.22" height="18.22"/>
    <rect class="st2" x="134.59" y="72.19" width="18.22" height="18.22"/>
    <rect class="st2" x="116.37" y="72.19" width="18.22" height="18.22"/>
    <rect class="st2" x="98.15" y="72.19" width="18.22" height="18.22"/>
    <rect class="st2" x="79.93" y="72.19" width="18.22" height="18.22"/>
    <rect class="st0" x="61.72" y="72.19" width="18.22" height="18.22"/>
    <rect class="st0" x="334.99" y="53.97" width="18.22" height="18.22"/>
    <rect class="st2" x="316.77" y="53.97" width="18.22" height="18.22"/>
    <rect class="st2" x="298.56" y="53.97" width="18.22" height="18.22"/>
    <rect class="st2" x="280.34" y="53.97" width="18.22" height="18.22"/>
    <rect class="st0" x="262.12" y="53.97" width="18.22" height="18.22"/>
    <rect class="st0" x="152.81" y="53.97" width="18.22" height="18.22"/>
    <rect class="st2" x="134.59" y="53.97" width="18.22" height="18.22"/>
    <rect class="st2" x="116.37" y="53.97" width="18.22" height="18.22"/>
    <rect class="st2" x="98.15" y="53.97" width="18.22" height="18.22"/>
    <rect class="st0" x="79.93" y="53.97" width="18.22" height="18.22"/>
    <rect class="st0" x="316.77" y="35.76" width="18.22" height="18.22"/>
    <rect class="st0" x="298.56" y="35.76" width="18.22" height="18.22"/>
    <rect class="st0" x="280.34" y="35.76" width="18.22" height="18.22"/>
    <rect class="st0" x="134.59" y="35.76" width="18.22" height="18.22"/>
    <rect class="st0" x="116.37" y="35.76" width="18.22" height="18.22"/>
    <rect class="st0" x="98.15" y="35.76" width="18.22" height="18.22"/>
  </g>
</svg>