<?xml version="1.0" encoding="UTF-8"?>
<svg xmlns="http://www.w3.org/2000/svg" xmlns:xlink="http://www.w3.org/1999/xlink" version="1.1" viewBox="0 0 1496.94 300">
  <!-- Generator: Adobe Illustrator 30.3.0, SVG Export Plug-In . SVG Version: 2.1.3 Build 182)  -->
  <defs>
    <style>
      .st0 {
        mix-blend-mode: multiply;
        opacity: .32;
      }

      .st1 {
        fill: #261f35;
      }

      .st2 {
        fill: #cbcecc;
      }

      .st3 {
        fill: #48405b;
      }

      .st4 {
        isolation: isolate;
      }

      .st5 {
        fill: #f0f0f0;
        font-family: SDGyeokdongG207Bk-KSCpc-EUC-H, 'Sandoll GyeokdongG2';
        font-size: 150.19px;
        letter-spacing: -.04em;
      }

      .st6 {
        fill: #fff;
      }

      .st7 {
        fill: #ff0358;
      }

      .st8 {
        clip-path: url(#clippath);
      }
    </style>
    <clipPath id="clippath">
      <path d="M1332.13,146.85c.66-.1,1.32-.22,1.97-.38,3.68-.89,7.31-2.93,9.05-6.3,1.74-3.37.92-8.17-2.4-9.98-3.14-1.71-6.79-1.01-10.21-.46-4.2.68-7.14-.02-11.19-.94-2.15-.49-4.54.29-5.98,1.96-1.91,2.21-1.98,5.63-.69,8.25,1.29,2.62,3.73,4.52,6.35,5.81,4.03,1.98,8.66,2.69,13.11,2.04Z"/>
    </clipPath>
  </defs>
  <g class="st4">
    <g id="Layer_1">
      <g>
        <text class="st5" transform="translate(32.73 225.23) scale(.98 1)"><tspan x="0" y="0">우리동네</tspan></text>
        <text class="st5" transform="translate(996.78 225.23) scale(.98 1)"><tspan x="0" y="0">찾기</tspan></text>
        <g>
          <g>
            <path class="st7" d="M711.52,41.16s23.15,13.91,23.78,43.65c.39,18.33,0,94.78,0,94.78h-115.34v-94.78c0-29.93,22.68-43.65,22.68-43.65,0,59.18,20.39,59.07,20.39,59.07h30.01s18.48.11,18.48-59.07ZM619.96,271.04v-55.2h127.79v-6.67h-127.79v-24.37h172.9v53.33h-127.79v7.29h127.79v25.62h-172.9ZM663.03,160.77h30.01v-13.83h-30.01v13.83ZM746.93,179.59v-102.07h45.93v102.07h-45.93Z"/>
            <path class="st7" d="M800.37,204.17v-77.91h58.18l1.63-13.33h-59.81v-32.29h105.33l-8.17,75.61h-54.1v13.33l84.31-3.96v33.33l-127.38,5.21ZM800.37,271.04v-59.58h45.52v25.41h135.77v34.16h-181.29ZM936.54,220.63v-74.78h-30.21v-35.62h30.21v-32.7h45.11v143.11h-45.11Z"/>
          </g>
          <g>
            <g>
              <path class="st6" d="M683.62,121.23c2.1,11.7,10.44,21.17,21.45,24.34,16.46,4.74,29.14-7.39,30.49-8.73,13.46-13.34,8.88-32.28,8.65-33.15-20.2,5.85-40.4,11.69-60.59,17.54Z"/>
              <path class="st6" d="M619.27,136.84c1.35,1.34,14.03,13.47,30.49,8.73,11.01-3.17,19.35-12.64,21.45-24.34-20.2-5.85-40.4-11.69-60.59-17.54-.23.87-4.81,19.81,8.65,33.15Z"/>
            </g>
            <path class="st2" d="M683.95,122.82c.04.18.08.35.12.53.06.23.12.46.18.69.03.11.06.22.09.33.08.27.16.53.24.8.02.07.04.14.06.2.09.29.19.58.3.87.01.04.03.08.04.11.11.31.23.62.35.92.14.37.28.68.41,1,.14.32.28.63.43.95,3.72,7.9,10.54,13.94,18.9,16.35,16.46,4.74,29.14-7.39,30.49-8.73,8.96-8.88,9.93-20.25,9.5-27.11-.17-2.69-.55-4.69-.74-5.57l-.11-.47c-20.2,5.85-40.4,11.69-60.59,17.54.06.36.13.71.21,1.06.04.17.08.34.12.52ZM715.34,115.88c13.64-4.25,23.2-4.91,26.09-5.04.06,4.02-.59,22.29-15.59,29.6-20.59,10.04-33.56-7.48-36.37-12.75,1.92-1.53,11.44-7.31,25.87-11.81Z"/>
            <path class="st1" d="M712.78,147.84c-2.69,0-5.37-.38-8.03-1.15-5.61-1.62-10.67-4.84-14.62-9.32-3.94-4.47-6.59-9.98-7.66-15.93l-.18-1.03,62.74-18.16.3,1.15c.06.22,1.38,5.4.84,12.28-.68,8.71-4.07,16.31-9.8,21.99-.96.95-4.52,4.27-9.89,6.86-4.56,2.2-9.14,3.3-13.7,3.3ZM684.96,122.05c2.31,10.74,10.23,19.47,20.43,22.41,6.62,1.91,13.37,1.23,20.08-2.01,5.04-2.44,8.37-5.53,9.27-6.42,5.41-5.36,8.48-12.26,9.12-20.52.37-4.7-.17-8.52-.52-10.35l-58.38,16.9Z"/>
            <path class="st1" d="M722.65,130.13c.68-.34,10.95-5.68,11.68-16.03.24-3.41-.64-6.22-1.37-7.97-1.61.02-3.94.11-6.74.46-9.33,1.16-16.57,4.28-26.18,8.49-1.78.78-4.19,1.87-7.02,3.23.19.44.37.88.56,1.31.8,1.85,3.36,7.08,9.3,10.32,9.43,5.14,18.9.61,19.77.18Z"/>
            <path class="st6" d="M727.34,117.94c0,1.97-1.59,3.56-3.56,3.56s-3.56-1.59-3.56-3.56,1.59-3.56,3.56-3.56,3.56,1.59,3.56,3.56Z"/>
            <path class="st3" d="M707.04,129.16c1.86.38,3.77.47,5.66.56,1.29.06,2.64.11,3.8-.46,1.17-.58,1.94-2.24,1.49-3.18-.23-.48-.75-.69-1.16-.82-2.05-.69-3.74-.44-5.25-.56-2.25-.19-1.08-.16-7.05-.64-1.06-.08-2.09-.15-2.52.45-.53.75.19,2.05.26,2.17.84,1.48,2.53,2.03,4.76,2.48Z"/>
            <g class="st0">
              <path d="M693.59,119.63c.37.85,1.11,2.41,2.37,4.16,4.54-2.37,11.16-5.35,19.38-7.91,7.83-2.44,14.32-3.7,18.97-4.35-.16-1.85-.6-3.44-1.05-4.67-13.38,3.87-26.77,7.75-40.15,11.62.16.38.33.76.49,1.14Z"/>
            </g>
            <path class="st1" d="M754.58,94.85l1.07,6.41c.11.64-.28,1.26-.91,1.43l-72.03,20.5-.85-3.52c-.26-1.08.35-2.19,1.41-2.54l69.65-23.28c.74-.25,1.53.23,1.66,1Z"/>
            <path class="st2" d="M671,122.3c.08-.35.15-.71.21-1.06-20.2-5.85-40.4-11.69-60.59-17.54l-.11.47c-.19.88-.57,2.88-.74,5.57-.42,6.86.54,18.23,9.5,27.11,1.35,1.34,14.03,13.47,30.49,8.73,8.37-2.41,15.19-8.46,18.9-16.35.15-.31.29-.63.43-.95.14-.31.27-.63.39-.95.14-.35.25-.66.36-.97.01-.04.24-.69.33-.99.02-.07.23-.73.3-1,.03-.11.22-.79.27-1.02.04-.17.08-.35.12-.53.04-.17.08-.34.12-.52ZM665.36,127.69c-2.82,5.27-15.78,22.79-36.37,12.75-15-7.31-15.65-25.58-15.59-29.6,2.88.12,12.45.79,26.09,5.04,14.44,4.5,23.96,10.28,25.87,11.81Z"/>
            <path class="st1" d="M642.05,147.84c-4.56,0-9.15-1.1-13.7-3.3-5.37-2.59-8.93-5.91-9.89-6.86-5.73-5.68-9.12-13.28-9.8-21.99-.54-6.88.78-12.06.84-12.28l.3-1.15,62.74,18.16-.18,1.03c-1.07,5.95-3.72,11.46-7.66,15.93-3.95,4.48-9,7.7-14.62,9.32-2.66.77-5.34,1.15-8.03,1.15ZM611.48,105.15c-.35,1.83-.89,5.65-.52,10.35.65,8.26,3.71,15.16,9.12,20.52.9.89,4.22,3.99,9.27,6.42,6.71,3.24,13.47,3.92,20.08,2.01,10.2-2.94,18.12-11.67,20.43-22.41l-58.38-16.9Z"/>
            <path class="st1" d="M632.18,130.13c-.68-.34-10.95-5.68-11.68-16.03-.24-3.41.64-6.22,1.37-7.97,1.61.02,3.94.11,6.74.46,9.33,1.16,16.57,4.28,26.18,8.49,1.78.78,4.19,1.87,7.02,3.23-.19.44-.37.88-.56,1.31-.8,1.85-3.36,7.08-9.3,10.32-9.43,5.14-18.9.61-19.77.18Z"/>
            <path class="st6" d="M627.49,117.94c0,1.97,1.6,3.56,3.56,3.56s3.56-1.59,3.56-3.56-1.59-3.56-3.56-3.56-3.56,1.59-3.56,3.56Z"/>
            <path class="st3" d="M647.79,129.16c-1.86.38-3.77.47-5.66.56-1.29.06-2.64.11-3.8-.46-1.17-.58-1.94-2.24-1.49-3.18.23-.48.75-.69,1.16-.82,2.05-.69,3.74-.44,5.25-.56,2.25-.19,1.08-.16,7.05-.64,1.06-.08,2.09-.15,2.52.45.53.75-.19,2.05-.26,2.17-.84,1.48-2.53,2.03-4.76,2.48Z"/>
            <g class="st0">
              <path d="M661.24,119.63c-.37.85-1.11,2.41-2.37,4.16-4.54-2.37-11.16-5.35-19.38-7.91-7.83-2.44-14.32-3.7-18.97-4.35.16-1.85.6-3.44,1.05-4.67,13.38,3.87,26.77,7.75,40.15,11.62-.16.38-.33.76-.49,1.14Z"/>
            </g>
            <path class="st1" d="M600.24,94.85l-1.07,6.41c-.11.64.28,1.26.91,1.43l72.03,20.5.85-3.52c.26-1.08-.35-2.19-1.41-2.54l-69.65-23.28c-.74-.25-1.53.23-1.66,1Z"/>
          </g>
        </g>
      </g>
      <g>
        <ellipse cx="1380.27" cy="253.27" rx="29.91" ry="7.25"/>
        <ellipse cx="1347.67" cy="255.68" rx="29.91" ry="7.25"/>
        <g>
          <path class="st6" d="M1362.56,184.45c-9.83,14.05-15.45,31-15.95,48.14-5.4-9.6-18.09-14.37-28.48-10.7-10.39,3.67-17.27,15.34-15.46,26.21.43,2.59,1.44,5.29,3.65,6.71,1.59,1.02,3.55,1.21,5.43,1.37,15.05,1.22,30.17,1.56,45.26,1,2.67-.1,6.11-.9,6.39-3.56.09-.89-.24-1.77-.53-2.62-7.19-20.82,5.22-45.01,13.11-62.33l-13.43-4.2Z"/>
          <path d="M1361.61,184.73c-7.72,11.07-12.89,23.9-15.01,37.23-.6,3.78-.97,7.6-1.09,11.43.64-.17,1.29-.35,1.93-.52-5.89-10.33-19.72-15.33-30.78-10.74-5.55,2.3-10.07,6.77-12.71,12.15-2.61,5.3-3.74,12.09-1.58,17.75.56,1.45,1.35,2.85,2.56,3.86,1.37,1.15,3.05,1.67,4.79,1.91,4.04.56,8.18.68,12.25.9,8.45.46,16.92.64,25.38.54,2.17-.03,4.35-.07,6.52-.13,1.74-.05,3.5-.03,5.23-.33,2.72-.46,5.65-2.08,5.26-5.26-.2-1.67-1-3.29-1.42-4.93-.43-1.68-.76-3.4-.96-5.13-.39-3.38-.37-6.8-.05-10.19,1.31-13.82,7.28-26.78,13.02-39.24.62-1.35,1.25-2.71,1.87-4.06.28-.62.07-1.31-.62-1.52-4.48-1.4-8.95-2.8-13.43-4.2-1.27-.4-1.82,1.6-.55,2,4.48,1.4,8.95,2.8,13.43,4.2-.21-.51-.41-1.01-.62-1.52-5.33,11.7-11.07,23.39-13.85,36.02-1.4,6.38-2.03,12.97-1.15,19.46.21,1.59.51,3.17.91,4.72.2.76.41,1.51.66,2.26.28.85.76,1.79.73,2.71-.06,2.64-4.21,2.78-6.06,2.85-8.06.29-16.13.32-24.19.09-4-.11-8-.29-12-.52-2-.12-4-.25-5.99-.4-1.82-.14-3.72-.17-5.49-.64-3.2-.86-4.48-3.84-4.99-6.86-.46-2.75-.3-5.61.34-8.32,1.31-5.53,4.64-10.65,9.29-13.94,9.33-6.6,22.67-4.29,30.04,4.2.9,1.04,1.68,2.17,2.36,3.36.52.91,1.9.48,1.93-.52.41-13.22,3.85-26.32,9.99-38.04,1.73-3.31,3.68-6.51,5.82-9.57.76-1.09-1.03-2.13-1.79-1.04Z"/>
          <path d="M1344.75,232.75c1.25,2.31,2.02,4.84,2.25,7.46.68-.09,1.35-.18,2.03-.28-.8-2.66-1.59-5.32-2.39-7.99-.38-1.27-2.38-.73-2,.55.8,2.66,1.59,5.32,2.39,7.99.32,1.07,2.13.93,2.03-.28-.25-3-1.09-5.86-2.53-8.51-.63-1.17-2.42-.13-1.79,1.04Z"/>
        </g>
        <g>
          <path class="st6" d="M1329.21,184.4c-6.12,5.91-8.04,15.75-4.59,23.52,3.52,7.94,12.38,13.17,21.04,12.35.69,2.83,1.96,5.5,3.7,7.82-1.81.29-3.56.92-5.13,1.85-4.47,2.65-7.41,7.55-8.15,12.7-.43,3-.13,6.23,1.54,8.76,2.79,4.24,8.43,5.4,13.49,5.7,5.82.34,11.69,0,17.44-.98,2.67-.46,5.4-1.1,7.57-2.71,3.41-2.53,4.81-6.94,5.84-11.02,1.27-5,2.21-10.08,2.77-15.21.39-3.56.61-7.21-.26-10.69-1.34-5.33-5.33-9.91-10.42-11.96-1.97-.79-4.07-1.2-6.19-1.23-3.34-.05-6.51,1.34-8.92,3.65-6.13,5.9-16.53,2.09-19.34-5.23-2.43-6.33.58-14.05,6.29-17.72l-16.66.4Z"/>
          <path d="M1328.48,183.56c-5.11,5.01-7.39,12.43-6.32,19.47,1.06,6.96,5.79,12.92,12.08,15.97,3.54,1.72,7.49,2.55,11.43,2.2-.33-.25-.67-.51-1-.76.73,2.91,2.02,5.65,3.8,8.07.21-.51.41-1.01.62-1.52-6.4,1.11-11.27,6.05-13.26,12.1-.98,2.98-1.3,6.31-.54,9.38.73,2.92,2.6,5.33,5.18,6.87,2.47,1.47,5.33,2.12,8.16,2.47,3.6.44,7.28.43,10.89.25,3.68-.19,7.41-.59,11.02-1.37,3.2-.69,6.23-2,8.32-4.61,1.89-2.36,2.94-5.25,3.73-8.13.99-3.59,1.76-7.25,2.36-10.93,1.12-6.85,2.34-14.5-1.04-20.93-2.95-5.61-8.63-9.39-14.95-9.88-3.23-.25-6.43.6-9.06,2.5-1.13.81-2.05,1.87-3.24,2.61-1.03.64-2.17,1.05-3.37,1.26-4.7.81-9.77-1.88-12.09-5.96-2.72-4.8-1.33-11.09,2.14-15.13.89-1.04,1.91-1.95,3.06-2.7.82-.54.55-1.95-.52-1.93-4.86.12-9.72.23-14.59.35-.69.02-1.38.03-2.08.05-1.33.03-1.33,2.1,0,2.07,4.86-.12,9.72-.23,14.59-.35.69-.02,1.38-.03,2.08-.05-.17-.64-.35-1.29-.52-1.93-4.56,2.98-7.55,8.21-7.65,13.69-.09,5.11,2.63,9.74,7.08,12.23,4.12,2.31,9.49,2.64,13.46-.18,1.18-.84,2.15-1.93,3.38-2.71,1.28-.81,2.68-1.37,4.17-1.65,3.19-.59,6.75.25,9.55,1.8,5.36,2.95,8.44,8.5,8.67,14.54.14,3.64-.37,7.32-.93,10.91-.57,3.66-1.32,7.29-2.26,10.88-.72,2.75-1.58,5.58-3.29,7.9-1.94,2.63-4.88,3.74-7.98,4.37-3.63.73-7.35,1.11-11.05,1.25-3.35.13-6.78.13-10.11-.32-2.69-.36-5.46-1.07-7.69-2.67-2.49-1.79-3.68-4.64-3.77-7.65-.18-5.78,2.88-11.81,7.94-14.73,1.47-.85,3.08-1.38,4.75-1.67.62-.11.99-1.01.62-1.52-1.68-2.29-2.9-4.82-3.59-7.58-.1-.41-.56-.8-1-.76-6.4.56-12.77-2.14-17-6.93-4.31-4.88-5.65-11.68-4.02-17.92.91-3.5,2.72-6.72,5.31-9.25.95-.93-.51-2.4-1.46-1.46Z"/>
        </g>
        <path class="st6" d="M1276.6,89.01c1.86,4.03,3.56,8.14,5.1,12.3l-5.99,6.8c-4.95-10.81-12.24-20.54-21.22-28.32-2.7,2.34-6.6,3.22-10.04,2.26-4.01-1.12-7.26-4.69-7.82-8.85-3.29.01-6.59.03-9.88.04-1.59,0-3.26,0-4.67-.74-2.91-1.52-3.5-5.83-1.69-8.57.79-1.2,1.91-2.12,3.19-2.76-.46-1.14-.72-1.78-.72-1.78-1.37-3.39.83-7.5,4.16-9.02,2.04-.94,4.34-1.05,6.55-.6-4.75,1.44-5.95-4.11-3.65-6.62,1.81-1.97,4.81-2.34,7.45-1.94,8.63,1.29,14.93,8.87,19.89,15.84,1.81-3.39,5.09-6.1,8.89-6.24,4.34-.15,8.64,4.13,7.51,8.33-1.09,4.07-5.94,5.76-9.88,6.94,4.86,7.3,9.15,14.98,12.82,22.94Z"/>
        <g>
          <path d="M1230.62,49.67c-1.78-1.24-1.12-4.12.36-5.27,1.96-1.52,4.78-1.39,7.06-.86,5.04,1.16,9.14,4.56,12.52,8.33,1.98,2.21,3.74,4.6,5.44,7.03.43.61,1.38.72,1.79,0,2.11-3.77,6.77-7.21,11.14-4.86,1.82.98,3.44,2.84,3.51,4.99.07,2.02-1.22,3.69-2.83,4.77-1.98,1.33-4.29,2.03-6.56,2.69-.62.18-.99.95-.62,1.52,7.14,11.01,12.99,22.83,17.41,35.19.09-.34.18-.67.27-1.01-2.02,2.25-4.05,4.49-6.07,6.74.54.07,1.08.14,1.63.21-4.88-10.95-12.11-20.81-21.07-28.77-.45-.4-1.01-.37-1.46,0-2.82,2.32-6.96,2.96-10.3,1.42-3.12-1.43-5.3-4.37-5.76-7.76-.06-.44-.59-.76-1-.76-3.29-.02-6.59-.04-9.88-.07-2.38-.02-4.98-.23-5.94-2.77-.74-1.94-.29-4.21,1.11-5.73,1.63-1.76,4.07-2.57,6.43-2.66,3.46-.13,6.8,1.17,9.98,2.36,1.25.47,1.79-1.53.55-2-5.72-2.14-13.15-4.35-18.17.56-1.89,1.85-2.68,4.51-2.16,7.1.54,2.73,2.64,4.61,5.37,5.03,1.99.31,4.06.19,6.06.2,2.21.02,4.43.03,6.64.05-.33-.25-.67-.51-1-.76.56,4.06,3.42,7.61,7.17,9.2,4.13,1.75,8.92.87,12.35-1.95h-1.46c8.84,7.86,15.92,17.55,20.74,28.35.27.6,1.21.67,1.63.21,2.02-2.25,4.05-4.49,6.07-6.74.24-.26.39-.65.27-1.01-4.48-12.53-10.38-24.52-17.62-35.68-.21.51-.41,1.01-.62,1.52,4.47-1.29,10.63-3.43,10.9-8.99.13-2.73-1.54-5.22-3.71-6.73-2.28-1.59-5.16-1.94-7.78-1.05-3.05,1.03-5.46,3.38-7.01,6.15h1.79c-3.48-5-7.32-10-12.48-13.38-2.52-1.65-5.38-2.84-8.38-3.23-2.81-.37-6.16.07-8.1,2.36-1.93,2.28-1.8,6.09.74,7.86,1.1.76,2.13-1.03,1.04-1.79h0Z"/>
          <path d="M1223.46,60.06c-.76-2.09-.13-4.34,1.32-5.98,1.66-1.88,4.08-2.61,6.55-2.47,5.65.31,9.87,4.67,13.56,8.48.93.96,2.39-.51,1.46-1.46-3.44-3.55-7.13-7.27-12.04-8.6-4.45-1.21-9.48-.16-12.01,3.96-1.21,1.97-1.64,4.43-.83,6.63.45,1.24,2.45.7,2-.55h0Z"/>
          <path d="M1248.48,57.64c-5.53.76-10.27,4.81-12.07,10.07-.43,1.26,1.57,1.81,2,.55,1.58-4.62,5.81-7.96,10.62-8.62.56-.08.85-.78.72-1.27-.16-.6-.72-.8-1.27-.72h0Z"/>
        </g>
        <path class="st7" d="M1312.78,178.27c16.04,7.82,34.68,11.18,52.1,11.78.04,0,.07,0,.11,0,26.72.93,54.42-7.2,70.46-30.24,6.1-8.77,10.18-18.89,12.06-29.42,1.3-7.29,1.51-14.78.52-22.11-1.27-9.41-4.43-18.53-9.33-26.63-5.04-8.34-12.1-15.32-20.6-19.99-5.46-3-11.83-4.66-17.95-3.95-4.39-6.88-11.82-11.6-19.72-13.72-7.74-2.07-15.89-1.89-23.84-.67-9.2-5.38-20.16-8.48-30.85-7.33-32.52,3.51-54.96,38.27-55.97,67.91-.53,15.49,3.11,31.32,10.65,44.82,7.56,13.55,19.07,23.07,32.35,29.54Z"/>
        <path d="M1312.29,179.19c16.62,8.05,35.3,11.44,53.67,11.93,15.47.41,31.31-2.19,45.23-9.17,6.85-3.44,13.16-7.97,18.49-13.48,6.05-6.26,10.75-13.73,14.11-21.75,7.44-17.77,7.96-38.22.59-56.1-3.37-8.17-8.22-15.73-14.68-21.8-6.29-5.91-14.14-10.86-22.82-12.05-2.24-.31-4.5-.36-6.75-.12.3.17.6.34.89.51-7.03-10.88-19.96-15.6-32.46-15.78-4.11-.06-8.21.33-12.27.95l.8.1c-7.28-4.23-15.45-7.03-23.88-7.6-6.97-.47-14.04.79-20.54,3.3-12.05,4.66-22.04,13.48-29.41,23.97-7.33,10.43-12.28,22.7-13.95,35.35-2.08,15.72.93,32.36,7.62,46.67,3.3,7.05,7.65,13.56,13.07,19.16,5.1,5.28,11.04,9.72,17.42,13.33,1.6.91,3.24,1.76,4.89,2.57,1.19.58,2.24-1.2,1.04-1.79-7.77-3.79-15.01-8.66-21.12-14.79-6.44-6.45-11.38-14.19-14.87-22.59-6.73-16.19-8.71-34.8-4.09-51.82,3.9-14.36,11.88-27.9,23.12-37.73,5.57-4.87,12.03-8.79,19.06-11.15,8.27-2.77,17.02-3.26,25.52-1.22,4.79,1.15,9.41,2.97,13.73,5.35.48.26.96.63,1.48.82.52.19,1.15-.02,1.68-.1,1.37-.19,2.74-.35,4.11-.47,2.7-.23,5.41-.32,8.12-.21,9.19.38,18.44,3.33,25.15,9.84,1.52,1.47,2.86,3.1,4.01,4.88.18.28.53.55.89.51,8.89-.98,17.26,2.88,24.16,8.19,6.69,5.15,11.98,11.86,15.81,19.34,8.65,16.87,9.65,36.77,3.66,54.67-2.75,8.21-6.94,16.03-12.5,22.68-4.82,5.76-10.64,10.61-17.13,14.39-12.97,7.57-28.11,10.8-43.02,11.07-8.5.16-17.08-.53-25.47-1.88-8.96-1.44-17.81-3.71-26.23-7.09-2.05-.83-4.08-1.73-6.07-2.69-1.19-.58-2.24,1.21-1.04,1.79Z"/>
        <g>
          <g>
            <path class="st6" d="M1329.3,125.56c4.77,3.2,11.5,2.15,17.54-2.07,2.95-2.06,5.73-4.87,8.03-8.31,5.81-8.68,6.77-18.65,2.9-24.52-.8-1.22-1.81-2.26-3.03-3.08-7.1-4.75-18.55-.1-25.58,10.39-7.02,10.49-6.96,22.85.14,27.6Z"/>
            <path class="st6" d="M1332.89,93.14c-.05-2.96-.78-5.63-2.17-7.74-.75-1.15-1.7-2.12-2.84-2.89-6.66-4.46-17.4-.1-24,9.74-6.58,9.83-6.53,21.43.13,25.89,4.47,3,10.79,2.02,16.45-1.94.97-.67,1.92-1.44,2.84-2.29"/>
            <g>
              <path d="M1332.13,146.85c.66-.1,1.32-.22,1.97-.38,3.68-.89,7.31-2.93,9.05-6.3,1.74-3.37.92-8.17-2.4-9.98-3.14-1.71-6.79-1.01-10.21-.46-4.2.68-7.14-.02-11.19-.94-2.15-.49-4.54.29-5.98,1.96-1.91,2.21-1.98,5.63-.69,8.25,1.29,2.62,3.73,4.52,6.35,5.81,4.03,1.98,8.66,2.69,13.11,2.04Z"/>
              <g class="st8">
                <path class="st6" d="M1323.53,125.53c-2.92,2.75-2.81,8.05.23,10.67,3.04,2.62,8.3,1.95,10.59-1.35,1.95,3.05,6.81,3.66,9.45,1.18,3.12-2.93,2.42-7.99,1.21-12.1"/>
              </g>
            </g>
            <path d="M1329.27,126.71c8.13,5.32,18.46-.64,24.05-6.94,5.82-6.56,10.06-16.36,7.68-25.2-1.01-3.74-3.43-7.04-7.05-8.6-3.03-1.3-6.42-1.27-9.57-.42-8.19,2.22-14.78,9.28-18.23,16.8-3.48,7.59-4.78,18.96,3.12,24.36,1.1.75,2.14-1.04,1.04-1.79-6.09-4.16-5.5-13.03-3.34-19.15,2.58-7.31,8.16-14.15,15.35-17.31,2.68-1.18,5.79-1.84,8.7-1.25,3.29.66,5.88,2.85,7.27,5.89,1.47,3.21,1.53,7,.91,10.43-.77,4.29-2.6,8.33-5.08,11.9-2.84,4.09-6.7,7.64-11.26,9.69-3.99,1.79-8.74,2.29-12.54-.19-1.12-.73-2.16,1.06-1.04,1.79Z"/>
            <path d="M1334.42,93.39c-.09-3.53-1.05-7.11-3.47-9.77-1.83-2.01-4.34-3.21-7.02-3.55-5.61-.7-11.15,2.23-15.22,5.85-5.08,4.51-8.86,10.93-9.95,17.67-.88,5.47.01,11.8,4.72,15.33,6.67,5.01,15.67.88,21.05-4.04.99-.9-.48-2.36-1.46-1.46-4.27,3.9-11.21,7.61-16.98,4.69-4.6-2.33-5.91-7.71-5.51-12.49.51-6.15,3.62-12.1,7.83-16.53,3.42-3.6,8.1-6.75,13.21-7.03,2.38-.13,4.78.43,6.69,1.91,2.88,2.23,3.96,5.92,4.05,9.42.03,1.33,2.1,1.33,2.07,0h0Z"/>
            <path d="M1341.76,122.62c1.66.98,3.57,1.33,5.57,1.12,2.95-2.06,5.73-4.87,8.03-8.31,5.81-8.68,6.77-18.65,2.9-24.52-5.63-1.71-13.17,2.43-17.72,10.11-5.06,8.54-4.52,18.21,1.22,21.6Z"/>
            <path d="M1324.21,113.51h0c-1.17,1.15-2.4,2.16-3.66,3.04-.34.04-.68.06-1.01.06-1.63.02-3.18-.37-4.56-1.18-5.73-3.4-6.27-13.07-1.22-21.6,4.37-7.37,11.48-11.48,17.03-10.28h0c.24.05.46.11.69.17,1.55,2.35,2.33,5.35,2.32,8.67l-9.6,21.13Z"/>
            <path d="M1333.44,148.19c5.39-.83,11.63-3.97,12.54-9.94.37-2.48-.18-5.1-1.81-7.04-1.88-2.25-5.04-2.86-7.83-2.74-3.28.14-6.42,1.07-9.73.79-1.59-.14-3.16-.47-4.72-.82-1.47-.33-2.81-.61-4.31-.31-2.79.56-4.98,2.79-5.57,5.56-.6,2.82.21,5.7,1.94,7.96,4.38,5.69,12.71,7.49,19.49,6.55,1.31-.18.75-2.18-.55-2-5.38.75-11.61-.54-15.77-4.18-1.81-1.59-3.18-3.72-3.25-6.19-.07-2.41,1.14-4.72,3.52-5.5,1.25-.41,2.39-.24,3.64.04,1.34.3,2.68.6,4.04.79,2.79.39,5.42.15,8.19-.28,2.61-.4,5.56-.74,7.98.59,1.82,1,2.72,3.04,2.78,5.06.18,5.95-6.12,8.9-11.13,9.67-1.31.2-.75,2.2.55,2Z"/>
          </g>
          <path d="M1351.89,73.36c3.11-2.34,8.36-1.17,9.85,2.57.49,1.22,2.49.69,2-.55-1.94-4.86-8.6-7.03-12.89-3.81-1.05.79-.02,2.59,1.04,1.79h0Z"/>
          <path d="M1341.96,68.76c-1.74-4.34-8.1-5.73-11.31-2.15-.89.99.57,2.46,1.46,1.46,2.07-2.31,6.65-1.76,7.85,1.23.49,1.22,2.49.69,2-.55h0Z"/>
        </g>
        <path class="st6" d="M1447.99,142.01c-1.23-3.18-5.2-5.32-8.8-5.02-4.47.38-8.28,3.31-11.67,6.24l-3.12-5.94c5.62-9.08,17.69-13.59,27.89-10.43,2.69.83,5.28,2.17,7.2,4.23,3.79,4.06,4.34,10.48,2.22,15.61-2.23,5.4-7,9.46-12.21,12.03,1.5,3.18,1.15,7.11-.81,10.01-2.36,3.49-6.97,5.38-11.11,4.1,10.98-27.47,23.88-13.59,19.84-6.36.36.83.56,1.68.56,2.44,0,1.64-.68,3.26-1.81,4.55.2.56.34,1.14.39,1.74.33,3.82-1.97,7.45-4.93,9.88-8.59,7.05-23.09,4.7-29.24-4.56-6.14-9.26-2.85-23.32,6.63-29.11,4.17-2.55,10.1-3.36,13.62.04,2.83-1.45,5.5-3.84,5.74-6.99.07-.87-.07-1.7-.36-2.47Z"/>
        <g>
          <path d="M1450.99,162.81c2.26-.31,4.25,1.23,5.33,3.09,1.28,2.21,1,4.65-.66,6.61-.86,1.01.6,2.48,1.46,1.46,2.26-2.67,2.76-6.07.99-9.12-1.6-2.75-4.45-4.49-7.67-4.04-1.31.18-.75,2.18.55,2h0Z"/>
          <path d="M1453.65,157.56c3.08,1.12,4.64,5.17,3.15,8.07-.61,1.18,1.18,2.23,1.79,1.04,2.13-4.15-.02-9.52-4.39-11.11-1.25-.45-1.79,1.54-.55,2h0Z"/>
          <path d="M1441.28,174c3.61-.35,6.94-2.3,8.82-5.44,1.93-3.21,2.07-7.22.52-10.6l-.37,1.42c5.64-2.81,10.8-7.3,12.97-13.36,2.1-5.86.91-13.11-4.09-17.14-4.82-3.88-11.52-4.9-17.5-3.96-5.76.91-11.3,3.8-15.23,8.12-.55.6-1.06,1.23-1.55,1.88-.41.55-1.23,1.4-1.23,2.12,0,.59.58,1.35.84,1.84.81,1.54,1.62,3.08,2.43,4.62.33.63,1.15.62,1.63.21,3.37-2.91,7.66-6.4,12.43-5.93,3.56.35,7.61,3.44,6.45,7.4-.7,2.4-2.93,4.03-5.04,5.13.42.05.84.11,1.25.16-5.89-5.52-15.15-1.4-19.63,3.87-4.54,5.34-6.46,12.79-5.04,19.66,1.44,6.99,6.59,12.37,13.26,14.7,6.44,2.25,14.13,1.61,19.67-2.56,3.57-2.68,6.58-7.03,5.91-11.7-.6-4.21-4.74-7.86-9.08-6.84-1.3.3-.75,2.3.55,2,3.31-.78,6.36,2.5,6.55,5.63.22,3.66-2.18,6.99-4.96,9.13-4.78,3.67-11.34,4.36-17.02,2.69-5.83-1.71-10.65-5.98-12.43-11.87-1.76-5.82-.65-12.35,2.64-17.43,1.87-2.88,4.55-5.37,7.74-6.7,3.31-1.39,7.59-1.73,10.4.89.35.33.83.38,1.25.16,2.27-1.19,4.51-2.92,5.59-5.31,1-2.22.87-4.76-.49-6.81-1.29-1.93-3.35-3.28-5.57-3.91-2.57-.73-5.26-.33-7.71.67-3.07,1.27-5.68,3.36-8.17,5.5.54.07,1.08.14,1.63.21-1.04-1.98-2.08-3.96-3.12-5.94v1.04c4.69-7.47,13.77-11.66,22.5-10.82,4.58.44,9.65,2.37,12.19,6.43,2.47,3.95,2.47,9.19.56,13.36-2.29,5.02-6.73,8.63-11.58,11.05-.54.27-.59.94-.37,1.42,2.58,5.66-1.43,12.34-7.56,12.93-1.31.13-1.33,2.2,0,2.07h0Z"/>
        </g>
        <path class="st6" d="M1323.36,44.84c-1.08-2.24-4-2.47-6.15-2.2-1.86.23-3.57.49-5.34,1.11-3.17,1.1-6.2,2.58-9.07,4.31-2.88,1.73-5.56,3.89-8.06,6.12-1.1.98-2.16,2.01-3.18,3.08-1.11,1.17-2.15,2.38-2.62,3.96-.51,1.72-.69,3.87.47,5.39v-5.03c-.41.94-.81,1.89-1.19,2.85-.64,1.63.32,3.69,1.59,4.66,1.3,1,3.5,1.38,4.93.35.49-.35.99-.7,1.49-1.04h-5.03c2.84,1.58,6.1.48,8.32-1.62.8-.76,1.5-1.63,2.29-2.41,1.57-1.56,3.24-3.01,4.99-4.37l-1.24.95c2.9-2.24,5.97-4.14,9.11-6.02,1.54-.92,3.11-1.75,4.61-2.72,1.01-.66,2.03-1.25,2.92-2.08,1.53-1.41,2.09-3.39,1.18-5.3h0Z"/>
        <path class="st6" d="M1442.44,117.65c.04-.08.08-.15.12-.23-.4.31-.8.61-1.2.92,1.4-.5,1.95-1.24,2.5-2.55-.47.61-.94,1.22-1.41,1.83.73-.54,1.22-1.08,1.57-1.91.18-.43.33-.87.47-1.32.33-1.06.39-2.17.38-3.28-.02-1.96-.25-3.93-.61-5.87-.35-1.94-1.06-3.73-1.97-5.48-1.05-2.02-3-4.5-5.36-4.97-1.85-.37-4.44.52-4.76,2.7-.19,1.32-.18,2.41.29,3.67.38,1.01.72,2.01,1.19,2.98.16.33.38.69.48,1.04-.05-.17-.41-.99-.16-.37.19.48.39.96.6,1.43.33.73.65,1.47.99,2.2.25.54-.35-.9-.14-.33.07.18.14.36.21.54.14.36.26.72.39,1.08.24.72.45,1.45.63,2.19.18.73.28,1.48.54,2.19.37,1.02.67,2.31,1.54,3.01-.26-.45-.53-.9-.79-1.35.36,1.04.85,1.83,1.87,2.35-.31-.4-.61-.8-.92-1.2.03.09.06.17.09.26.49,1.47,2.65,1.96,3.46.45h0Z"/>
      </g>
    </g>
  </g>
</svg>